<?xml version="1.0" encoding="UTF-8"?>
<svg width="200px" height="152px" viewBox="0 0 200 152" version="1.1" xmlns="http://www.w3.org/2000/svg" xmlns:xlink="http://www.w3.org/1999/xlink">
    <!-- Generator: sketchtool 63.1 (101010) - https://sketch.com -->
    <title>E4B330F1-6E1D-4E5E-96A1-996EDFC0E909</title>
    <desc>Created with sketchtool.</desc>
    <g id="Page-1" stroke="none" stroke-width="1" fill="none" fill-rule="evenodd">
        <g id="08.-Dashboard" transform="translate(-610.000000, -889.000000)" fill-rule="nonzero">
            <g id="---STATUS-DROPDOWN---" transform="translate(54.000000, 30.000000)">
                <g id="Illustration_codeReview" transform="translate(556.000000, 859.000000)">
                    <path d="M96.6928607,134.150477 C53.6762076,130.876907 2.37684827,97.5459911 4.98857498,63.2263602 C7.60030169,28.9067294 57.2842839,-3.04197693 100.300935,0.231588287 C143.317587,3.5051535 168.079443,67.6427684 165.467716,101.962394 C162.855989,136.28202 139.709512,137.424048 96.6928607,134.150477 Z" id="Path" fill="#272B3D"></path>
                    <ellipse id="Oval" fill="#272B3D" cx="100.300541" cy="134.161491" rx="89.7959184" ry="5.50133097"></ellipse>
                    <ellipse id="Oval" fill="#000000" opacity="0.1" cx="100.300541" cy="134.07276" rx="76.4862467" ry="3.63797693"></ellipse>
                    <ellipse id="Oval" fill="#272B3D" cx="37.6563531" cy="148.447205" rx="37.6563531" ry="3.28305235"></ellipse>
                    <rect id="Rectangle" fill="#3F3D56" x="34.8169565" y="28.7488909" width="133.451642" height="104.702751"></rect>
                    <path d="M100.024511,43.0575235 L67.1021118,43.0575235 C66.9591682,43.0578239 66.8269539,42.9817374 66.755395,42.8579946 C66.6838361,42.7342518 66.6838361,42.5817074 66.755395,42.4579646 C66.8269539,42.3342218 66.9591682,42.2581353 67.1021118,42.2584357 L100.024511,42.2584357 C100.244844,42.2589009 100.423213,42.4376463 100.423213,42.6579796 C100.423213,42.8783128 100.244844,43.0570583 100.024511,43.0575235 L100.024511,43.0575235 Z" id="Path" fill="#F2F2F2"></path>
                    <path d="M136.063349,47.452504 L84.2824898,47.452504 C84.0618278,47.452504 83.8829459,47.2736221 83.8829459,47.0529601 C83.8829459,46.8322981 84.0618278,46.6534161 84.2824898,46.6534161 L136.063349,46.6534161 C136.206092,46.6534161 136.337992,46.7295688 136.409364,46.8531881 C136.480736,46.9768074 136.480736,47.1291127 136.409364,47.252732 C136.337992,47.3763514 136.206092,47.452504 136.063349,47.452504 Z" id="Path" fill="#F2F2F2"></path>
                    <path d="M100.184328,51.8474836 L67.261929,51.8474836 C67.041267,51.8474836 66.8623851,51.6686017 66.8623851,51.4479397 C66.8623851,51.2272776 67.041267,51.0483957 67.261929,51.0483957 L100.184328,51.0483957 C100.40499,51.0483957 100.583872,51.2272776 100.583872,51.4479397 C100.583872,51.6686017 100.40499,51.8474836 100.184328,51.8474836 L100.184328,51.8474836 Z" id="Path" fill="#F2F2F2"></path>
                    <path d="M136.063349,51.9273931 L103.140951,51.9273931 C102.920289,51.9273931 102.741407,51.7485112 102.741407,51.5278492 C102.741407,51.3071871 102.920289,51.1283052 103.140951,51.1283052 L136.063349,51.1283052 C136.284011,51.1283052 136.462893,51.3071871 136.462893,51.5278492 C136.462893,51.7485112 136.284011,51.9273931 136.063349,51.9273931 L136.063349,51.9273931 Z" id="Path" fill="#F2F2F2"></path>
                    <path d="M100.264236,56.242465 L67.3418385,56.242465 C67.1211765,56.242465 66.9422946,56.063583 66.9422946,55.842921 C66.9422946,55.622259 67.1211765,55.4433771 67.3418385,55.4433771 L100.264236,55.4433771 C100.484898,55.4433771 100.66378,55.622259 100.66378,55.842921 C100.66378,56.063583 100.484898,56.242465 100.264236,56.242465 Z" id="Path" fill="#F2F2F2"></path>
                    <path d="M100.344146,60.6374445 L67.4217462,60.6374445 C67.2010842,60.6374445 67.0222023,60.4585626 67.0222023,60.2379006 C67.0222023,60.0172386 67.2010842,59.8383567 67.4217462,59.8383567 L100.344146,59.8383567 C100.564808,59.8383567 100.743689,60.0172386 100.743689,60.2379006 C100.743689,60.4585626 100.564808,60.6374445 100.344146,60.6374445 L100.344146,60.6374445 Z" id="Path" fill="#F2F2F2"></path>
                    <path d="M115.287079,43.1374321 L105.857847,43.1374321 C105.637185,43.1374321 105.458303,42.9585502 105.458303,42.7378882 C105.458303,42.5172262 105.637185,42.3383443 105.857847,42.3383443 L115.287079,42.3383443 C115.507741,42.3383443 115.686623,42.5172262 115.686623,42.7378882 C115.686623,42.9585502 115.507741,43.1374321 115.287079,43.1374321 L115.287079,43.1374321 Z" id="Path" fill="#F2F2F2"></path>
                    <path d="M115.287079,56.242465 L105.857847,56.242465 C105.637185,56.242465 105.458303,56.063583 105.458303,55.842921 C105.458303,55.622259 105.637185,55.4433771 105.857847,55.4433771 L115.287079,55.4433771 C115.507741,55.4433771 115.686623,55.622259 115.686623,55.842921 C115.686623,56.063583 115.507741,56.242465 115.287079,56.242465 L115.287079,56.242465 Z" id="Path" fill="#F2F2F2"></path>
                    <path d="M115.287079,60.5575359 L105.857847,60.5575359 C105.714904,60.5578363 105.582689,60.4817498 105.511131,60.358007 C105.439572,60.2342642 105.439572,60.0817198 105.511131,59.957977 C105.582689,59.8342342 105.714904,59.7581477 105.857847,59.7584481 L115.287079,59.7584481 C115.430023,59.7581477 115.562237,59.8342342 115.633796,59.957977 C115.705355,60.0817198 115.705355,60.2342642 115.633796,60.358007 C115.562237,60.4817498 115.430023,60.5578363 115.287079,60.5575359 L115.287079,60.5575359 Z" id="Path" fill="#F2F2F2"></path>
                    <path d="M131.109008,60.5575359 L121.679776,60.5575359 C121.459444,60.5570707 121.281075,60.3783253 121.281075,60.157992 C121.281075,59.9376588 121.459444,59.7589133 121.679776,59.7584481 L131.109008,59.7584481 C131.251952,59.7581477 131.384166,59.8342342 131.455725,59.957977 C131.527284,60.0817198 131.527284,60.2342642 131.455725,60.358007 C131.384166,60.4817498 131.251952,60.5578363 131.109008,60.5575359 Z" id="Path" fill="#F2F2F2"></path>
                    <path d="M76.4514339,47.452504 L67.0222041,47.452504 C66.8015421,47.452504 66.6226602,47.2736221 66.6226602,47.0529601 C66.6226602,46.8322981 66.8015421,46.6534161 67.0222041,46.6534161 L76.4514339,46.6534161 C76.6720959,46.6534161 76.8509778,46.8322981 76.8509778,47.0529601 C76.8509778,47.2736221 76.6720959,47.452504 76.4514339,47.452504 Z" id="Path" fill="#F2F2F2"></path>
                    <path d="M100.064465,107.783597 L67.1420657,107.783597 C66.9214036,107.783597 66.7425217,107.604715 66.7425217,107.384053 C66.7425217,107.163391 66.9214036,106.984509 67.1420657,106.984509 L100.064465,106.984509 C100.285127,106.984509 100.464009,107.163391 100.464009,107.384053 C100.464009,107.604715 100.285127,107.783597 100.064465,107.783597 Z" id="Path" fill="#F2F2F2"></path>
                    <path d="M99.9046477,116.573558 L66.9822484,116.573558 C66.7615864,116.573558 66.5827045,116.394676 66.5827045,116.174014 C66.5827045,115.953352 66.7615864,115.77447 66.9822484,115.77447 L99.9046477,115.77447 C100.12531,115.77447 100.304192,115.953352 100.304192,116.174014 C100.304192,116.394676 100.12531,116.573558 99.9046477,116.573558 Z" id="Path" fill="#F2F2F2"></path>
                    <path d="M99.9845555,120.968539 L67.0621579,120.968539 C66.9192144,120.968839 66.787,120.892752 66.7154411,120.76901 C66.6438823,120.645267 66.6438823,120.492722 66.7154411,120.36898 C66.787,120.245237 66.9192144,120.16915 67.0621579,120.169451 L99.9845555,120.169451 C100.127499,120.16915 100.259713,120.245237 100.331272,120.36898 C100.402831,120.492722 100.402831,120.645267 100.331272,120.76901 C100.259713,120.892752 100.127499,120.968839 99.9845555,120.968539 Z" id="Path" fill="#F2F2F2"></path>
                    <path d="M114.048493,116.653468 L104.619262,116.653468 C104.3986,116.653468 104.219718,116.474586 104.219718,116.253924 C104.219718,116.033262 104.3986,115.85438 104.619262,115.85438 L114.048493,115.85438 C114.269155,115.85438 114.448037,116.033262 114.448037,116.253924 C114.448037,116.474586 114.269155,116.653468 114.048493,116.653468 Z" id="Path" fill="#F2F2F2"></path>
                    <path d="M114.048493,120.968538 L104.619262,120.968538 C104.3986,120.968538 104.219719,120.789656 104.219719,120.568995 C104.219719,120.348333 104.3986,120.169452 104.619262,120.169452 L114.048493,120.169452 C114.269155,120.169452 114.448036,120.348333 114.448036,120.568995 C114.448036,120.789656 114.269155,120.968538 114.048493,120.968538 L114.048493,120.968538 Z" id="Path" fill="#F2F2F2"></path>
                    <path d="M129.870422,116.653468 L120.441193,116.653468 C120.220531,116.653468 120.041649,116.474586 120.041649,116.253924 C120.041649,116.033262 120.220531,115.85438 120.441193,115.85438 L129.870422,115.85438 C130.091084,115.85438 130.269966,116.033262 130.269966,116.253924 C130.269966,116.474586 130.091084,116.653468 129.870422,116.653468 L129.870422,116.653468 Z" id="Path" fill="#F2F2F2"></path>
                    <path d="M136.103304,112.178579 L84.3224437,112.178579 C84.1017816,112.178579 83.9228997,111.999697 83.9228997,111.779035 C83.9228997,111.558373 84.1017816,111.379491 84.3224437,111.379491 L136.103304,111.379491 C136.323966,111.379491 136.502848,111.558373 136.502848,111.779035 C136.502848,111.999697 136.323966,112.178579 136.103304,112.178579 L136.103304,112.178579 Z" id="Path" fill="#F2F2F2"></path>
                    <path d="M76.4913878,112.178579 L67.0621579,112.178579 C66.8414959,112.178579 66.662614,111.999697 66.662614,111.779035 C66.662614,111.558373 66.8414959,111.379491 67.0621579,111.379491 L76.4913878,111.379491 C76.7120498,111.379491 76.8909317,111.558373 76.8909317,111.779035 C76.8909317,111.999697 76.7120498,112.178579 76.4913878,112.178579 L76.4913878,112.178579 Z" id="Path" fill="#F2F2F2"></path>
                    <path d="M136.103304,125.443428 L84.3224437,125.443428 C84.1795001,125.443728 84.0472857,125.367642 83.9757269,125.243899 C83.904168,125.120156 83.904168,124.967612 83.9757269,124.843869 C84.0472857,124.720126 84.1795001,124.644039 84.3224437,124.64434 L136.103304,124.64434 C136.323966,124.64434 136.502847,124.823222 136.502847,125.043884 C136.502847,125.264545 136.323966,125.443428 136.103304,125.443428 L136.103304,125.443428 Z" id="Path" fill="#F2F2F2"></path>
                    <path d="M76.4913878,125.443428 L67.0621579,125.443428 C66.9192144,125.443728 66.787,125.367642 66.7154411,125.243899 C66.6438823,125.120156 66.6438823,124.967612 66.7154411,124.843869 C66.787,124.720126 66.9192144,124.644039 67.0621579,124.64434 L76.4913878,124.64434 C76.6343313,124.644039 76.7665457,124.720126 76.8381046,124.843869 C76.9096634,124.967612 76.9096634,125.120156 76.8381046,125.243899 C76.7665457,125.367642 76.6343313,125.443728 76.4913878,125.443428 L76.4913878,125.443428 Z" id="Path" fill="#F2F2F2"></path>
                    <polygon id="Path" fill="#00ABE6" points="92.1135759 71.1854481 79.3281278 83.8110027 92.1135759 96.4365572 94.9902396 93.5598935 85.3213842 83.8908607 95.0700976 74.1419698"></polygon>
                    <polygon id="Path" fill="#00ABE6" points="110.971961 71.1854481 123.757409 83.8110027 110.971961 96.4365572 108.095297 93.5598935 117.76433 83.8908607 108.015439 74.1419698"></polygon>
                    <circle id="Oval" fill="#00ABE6" cx="38.3662023" cy="31.4108252" r="1.5971606"></circle>
                    <circle id="Oval" fill="#00ABE6" cx="42.6252972" cy="31.4108252" r="1.5971606"></circle>
                    <circle id="Oval" fill="#00ABE6" cx="46.8843922" cy="31.4108252" r="1.5971606"></circle>
                    <rect id="Rectangle" fill="#000000" opacity="0.1" x="34.8169565" y="34.0727595" width="133.451642" height="1"></rect>
                    <path d="M199.856884,107.800101 C199.856884,119.117063 193.12913,123.068524 184.830025,123.068524 C176.530919,123.068524 169.803166,119.117063 169.803166,107.800101 C169.803166,96.4831393 184.830025,82.0861704 184.830025,82.0861704 C184.830025,82.0861704 199.856884,96.4831393 199.856884,107.800101 Z" id="Path" fill="#272B3D"></path>
                    <polygon id="Path" fill="#3F3D56" points="184.282697 121.337356 184.436557 111.866016 190.841349 100.148713 184.460692 110.380302 184.529902 106.121562 188.943922 97.6443656 184.548181 104.994676 184.548181 104.994676 184.672582 97.3352263 189.39929 90.5861579 184.692103 96.1307897 184.769831 82.0862467 184.281278 100.678793 184.321384 99.9118012 179.515705 92.5558119 184.244366 101.384206 183.796628 109.938421 183.783319 109.711269 178.243123 101.970186 183.76646 110.513398 183.710559 111.583141 183.700444 111.59929 183.705058 111.687134 182.568944 133.390062 184.086779 133.390062 184.268855 122.180124 189.778882 113.657675"></polygon>
                    <path d="M21.7607063,133.290406 C21.2996627,133.547073 20.8133103,133.755371 20.3094108,133.911973 C19.40811,134.158183 18.4447826,134.067856 17.5344046,134.278032 C17.1616735,134.364083 16.7560035,134.544076 16.6374676,134.907785 C16.55052,135.174566 16.6451091,135.462653 16.7356877,135.728224 C17.7416362,138.677631 18.3479592,141.809191 19.9522236,144.480756 C20.6264366,145.602827 21.4632562,146.618758 22.4353984,147.495425 C22.8001047,147.824135 23.213402,148.1457 23.7016646,148.197272 C24.1596683,148.24565 24.6085835,148.04545 24.8786385,147.672384 C25.1486936,147.299319 25.1986668,146.810332 25.0096593,146.390351 C24.8658154,146.070724 24.5984312,145.823148 24.4259858,145.518002 C24.2389924,145.129299 24.1293294,144.707958 24.1030967,144.277414 C23.9446016,143.015957 23.7919166,141.697531 24.228992,140.503649 C24.522142,139.702903 25.0598829,139.020252 25.507858,138.294687 C25.9558332,137.569122 26.3280373,136.738005 26.2283549,135.891138 C26.1603301,135.313216 25.8784188,134.784332 25.5806176,134.284394 C25.2822218,133.783471 24.6924685,132.437301 24.0929743,132.270135 C23.4706726,132.096612 22.3034197,133.012264 21.7607063,133.290406 Z" id="Path" fill="#2F2E41"></path>
                    <path d="M38.164433,143.478273 C38.1738179,143.763652 38.134005,144.048516 38.0467382,144.320387 C37.8590612,144.815956 37.3934996,145.155539 37.1529831,145.627725 C36.8184667,146.284444 36.9700852,147.078252 37.1917107,147.781148 C37.3306548,148.221815 37.5128997,148.68035 37.8860248,148.95288 C38.2051169,149.150674 38.567978,149.266909 38.9426051,149.291335 C42.1433629,149.734314 45.3947666,149.480154 48.6246992,149.572967 C49.2133966,149.589883 49.8366673,149.610495 50.3505572,149.3228 C50.8644472,149.035106 51.1821455,148.311833 50.8326353,147.837815 C50.5187862,147.412165 49.8982307,147.416128 49.3699769,147.391043 C47.9943895,147.321157 46.6843993,146.781527 45.6587081,145.862243 C45.4564259,145.689432 45.280985,145.487482 45.1381491,145.263028 C45.0282999,145.063806 44.9371465,144.854834 44.865858,144.638791 C44.4130716,143.412304 43.8744085,142.219252 43.2538722,141.068504 C43.0801775,140.746424 42.8835084,140.411006 42.5607045,140.238635 C42.3244007,140.131202 42.0679629,140.075216 41.8083851,140.074387 C41.0033611,140.022213 38.9187329,139.748238 38.2962289,140.374232 C37.7210541,140.952642 38.1771854,142.743622 38.164433,143.478273 Z" id="Path" fill="#2F2E41"></path>
                    <circle id="Oval" fill="#FBBEBE" cx="43.1181544" cy="66.8536522" r="5.14196273"></circle>
                    <path d="M38.4748483,71.099528 C38.1690062,71.9183212 37.6502325,72.6873026 36.8953647,73.127913 L44.0070949,74.5786069 C43.7491488,73.5406423 43.715162,72.4596517 43.9073949,71.4075333 C43.9779704,71.1528649 43.9924861,70.8859216 43.9499414,70.625102 C43.8162165,70.1091375 43.2353966,69.8607844 42.7157107,69.7423177 C41.4177409,69.446433 40.2699077,69.287764 39.0637285,68.714504 C38.6950435,69.3456593 38.7466655,70.3718279 38.4748483,71.099528 Z" id="Path" fill="#FBBEBE"></path>
                    <path d="M36.8359574,71.2026353 C38.3859614,70.5012371 40.1717468,70.5478989 41.6830062,71.3292866 C42.5947649,71.809764 43.3497161,72.5350222 44.0914374,73.2505732 C44.7751358,73.9101491 45.5044703,74.66537 45.5529956,75.6141207 C45.5765004,76.0737356 45.433047,76.5232351 45.3606158,76.9777143 C45.0937863,78.9042277 46.0748457,80.7887062 47.8060461,81.6750453 C48.3710151,82.616197 48.4876167,83.7564472 48.4962822,84.8541189 C48.5291127,89.0131109 47.2169299,93.2234073 48.1537072,97.2756593 C48.3736486,98.2270648 48.7147737,99.1485803 48.9047808,100.106412 C49.1508873,101.347051 49.1387382,102.622754 49.2674978,103.880994 C49.4071359,105.243537 49.7118372,106.584063 50.1749015,107.873091 C49.8654073,108.365319 49.2212955,108.554064 48.6412227,108.514199 C48.06115,108.474334 47.5187382,108.222609 47.0011322,107.957736 C44.4947844,106.675168 42.1991482,104.983949 39.6032618,103.893929 C37.8858456,103.172781 36.0562413,102.723587 34.3901491,101.890694 C32.7240568,101.057801 31.1745537,99.7359574 30.6651287,97.9442875 C30.4448554,97.169583 30.4312955,96.3533239 30.4192724,95.5480035 C30.3686353,92.1560319 30.3215865,88.7270328 31.0599113,85.4160035 C31.7110204,82.4961065 32.9661136,79.7028181 33.2399255,76.723764 C33.3290524,75.7540674 33.3309547,74.7159947 33.8727453,73.9068483 C34.6385306,72.7631677 36.2919965,72.4669796 36.8359574,71.2026353 Z" id="Path" fill="#2F2E41"></path>
                    <path d="M40.1937125,66.9262325 C40.4967028,66.5310541 41.0810665,66.4771624 41.5651162,66.5940568 C42.0491659,66.7109512 42.4954889,66.9604259 42.9843496,67.0552067 C43.2090402,67.1189928 43.4502094,67.0851199 43.6486353,66.9619059 C43.819528,66.7936149 43.921715,66.5677759 43.9353203,66.3283159 C44.1065568,65.3094919 44.1465684,64.2729284 44.054378,63.2439361 C44.0289221,63.0995797 44.0385862,62.9512168 44.0825537,62.8113824 C44.203583,62.5197409 44.5728287,62.4503248 44.8744064,62.3567666 C45.8979545,62.010799 46.5564924,61.0146813 46.4738545,59.9374091 C46.4663132,59.686234 46.3607899,59.4479801 46.1798527,59.2736025 C45.9712937,59.1036557 45.6793842,59.0932138 45.4103602,59.0910524 C44.0281573,59.0799527 42.6459266,59.0802869 41.2636681,59.092055 C40.7520834,59.0964117 40.2148146,59.1090062 39.7713221,59.3640621 C39.4434268,59.5526389 39.1995901,59.856165 38.9052245,60.0937054 C38.1374854,60.7132458 37.0990399,60.8393043 36.1650009,61.1568305 C35.7090407,61.2866728 35.2949978,61.5335772 34.9640195,61.8730062 C34.6533984,62.2278687 34.504055,62.7555457 34.6991375,63.1849104 C34.7992883,63.3638707 34.9111465,63.5360227 35.0339823,63.7002431 C35.584937,64.5811943 35.2181491,65.7238563 35.3004224,66.7596433 C35.4031588,68.0530559 37.3172724,70.1512263 38.6152032,70.4572937 C40.7106264,70.9514179 39.5000479,67.77526 40.1937125,66.9262325 Z" id="Path" fill="#2F2E41"></path>
                    <path d="M37.2909086,123.634889 C37.4231393,124.579287 37.5927187,125.526942 37.547386,126.479475 C37.4840958,127.809315 37.0045075,129.090621 36.9158474,130.419012 C36.8496273,131.411175 37.0027844,132.414067 36.8650009,133.398846 C36.7767755,134.029414 36.57115,134.637265 36.4438563,135.261122 C36.0365073,137.315311 36.4833095,139.446808 37.6813132,141.164484 C37.768416,141.309967 37.8922499,141.429983 38.0403886,141.512488 C38.182477,141.565123 38.3345553,141.585243 38.4854428,141.57137 C39.9820391,141.540913 41.4746418,141.405264 42.9522094,141.165427 C43.0603693,141.160991 43.1628413,141.115779 43.2390275,141.038877 C43.2723457,140.98789 43.2936448,140.93 43.3013168,140.869578 C43.5752813,139.461237 42.9505164,138.049113 42.7916451,136.623194 C42.6220035,135.100625 42.9873345,133.574866 43.3499627,132.086412 C43.5143978,131.35217 43.7198293,130.627715 43.9652919,129.916451 C44.1405714,129.437773 44.3522555,128.972199 44.5041739,128.485601 C44.7193392,127.721167 44.8503733,126.935521 44.8949459,126.142635 C45.0004306,124.891498 45.0563171,123.637495 45.0626051,122.380626 C45.0984376,121.189594 44.9993082,119.998334 44.7671109,118.829606 C44.4338367,117.349925 43.7513523,115.975895 43.0748465,114.618376 C42.713121,114.705071 42.3735304,114.866473 42.0778917,115.092215 C41.206116,115.65684 40.2958746,116.15973 39.3538456,116.597196 C38.7209175,116.891209 37.4865963,117.100021 37.0848944,117.712683 C36.6887489,118.316873 36.9443443,119.549563 36.9746105,120.215917 C37.0265513,121.359668 37.131984,122.499326 37.2909086,123.634889 Z" id="Path" fill="#2F2E41"></path>
                    <path d="M37.2909086,123.634889 C37.4231393,124.579287 37.5927187,125.526942 37.547386,126.479475 C37.4840958,127.809315 37.0045075,129.090621 36.9158474,130.419012 C36.8496273,131.411175 37.0027844,132.414067 36.8650009,133.398846 C36.7767755,134.029414 36.57115,134.637265 36.4438563,135.261122 C36.0365073,137.315311 36.4833095,139.446808 37.6813132,141.164484 C37.768416,141.309967 37.8922499,141.429983 38.0403886,141.512488 C38.182477,141.565123 38.3345553,141.585243 38.4854428,141.57137 C39.9820391,141.540913 41.4746418,141.405264 42.9522094,141.165427 C43.0603693,141.160991 43.1628413,141.115779 43.2390275,141.038877 C43.2723457,140.98789 43.2936448,140.93 43.3013168,140.869578 C43.5752813,139.461237 42.9505164,138.049113 42.7916451,136.623194 C42.6220035,135.100625 42.9873345,133.574866 43.3499627,132.086412 C43.5143978,131.35217 43.7198293,130.627715 43.9652919,129.916451 C44.1405714,129.437773 44.3522555,128.972199 44.5041739,128.485601 C44.7193392,127.721167 44.8503733,126.935521 44.8949459,126.142635 C45.0004306,124.891498 45.0563171,123.637495 45.0626051,122.380626 C45.0984376,121.189594 44.9993082,119.998334 44.7671109,118.829606 C44.4338367,117.349925 43.7513523,115.975895 43.0748465,114.618376 C42.713121,114.705071 42.3735304,114.866473 42.0778917,115.092215 C41.206116,115.65684 40.2958746,116.15973 39.3538456,116.597196 C38.7209175,116.891209 37.4865963,117.100021 37.0848944,117.712683 C36.6887489,118.316873 36.9443443,119.549563 36.9746105,120.215917 C37.0265513,121.359668 37.131984,122.499326 37.2909086,123.634889 Z" id="Path" fill="#000000" opacity="0.1"></path>
                    <path d="M30.3391571,103.463709 C29.6563248,105.302114 30.6600373,107.288687 31.5320586,109.045269 C33.680417,113.372891 35.1722839,117.99069 36.6561881,122.588706 C36.7673416,122.933125 36.8784064,123.30888 36.7544898,123.648916 C36.647479,123.890513 36.4737617,124.096566 36.2537338,124.242882 C35.2305768,125.020016 33.9277764,125.296783 32.7089725,125.703361 C31.5310975,126.096457 30.4029733,126.6253 29.3473665,127.279217 C28.4641757,127.826488 27.6368234,128.458252 26.8110949,129.088889 L24.1825235,131.096428 C24.0123428,131.211431 23.8636398,131.355377 23.7431659,131.52173 C23.4896433,131.919478 23.5934871,132.438738 23.719709,132.89321 C24.0539754,134.096556 24.4843523,135.27111 25.0066886,136.405544 C25.0926305,136.654211 25.2562602,136.868649 25.4734144,137.017193 C25.8836948,137.237673 26.3855191,136.94532 26.6988181,136.600664 C27.0121171,136.256007 27.2830985,135.827116 27.7247418,135.679155 C28.1658669,135.531368 28.6513789,135.710341 29.1120834,135.645666 C29.857189,135.541065 30.3518722,134.854674 30.8889654,134.327744 C33.0833452,132.174891 36.7470115,132.331074 39.1609157,130.427615 C39.5098525,130.115371 39.8792646,129.826794 40.2666832,129.563812 C40.6747649,129.322589 41.1375475,129.190195 41.5609441,128.976992 C42.8487223,128.328525 43.6583088,126.987899 44.0919894,125.612839 C44.5256699,124.23778 44.6493523,122.786245 44.9609973,121.378495 C45.1221083,120.650736 45.3341846,119.930813 45.4058527,119.188886 C45.4519486,118.498813 45.4369193,117.806017 45.3609406,117.118593 L44.4899326,106.34389 C44.4190186,105.466639 44.3479858,104.588364 44.2102981,103.719088 C41.6234942,103.811563 39.038543,103.915634 36.4502662,103.94624 C34.3907152,103.970582 32.2933203,104.114559 30.3391571,103.463709 Z" id="Path" fill="#2F2E41"></path>
                    <path d="M29.3881988,105.984206 C29.7391074,106.548555 30.5931961,106.536898 31.1813256,106.227492 C31.7694552,105.918087 32.2263656,105.398284 32.8158793,105.091524 C33.6080479,104.679311 34.5454463,104.694813 35.4380923,104.720025 C36.8513256,104.75994 38.2819095,104.802424 39.6416273,105.189716 C41.0479911,105.590296 42.4170825,106.361556 43.8712635,106.207693 C44.124307,106.180919 44.4009973,106.108351 44.5387098,105.894382 C44.6194057,105.739373 44.6573619,105.56567 44.6486761,105.39113 L44.6962254,104.120678 C44.7253701,103.900956 44.6902361,103.677496 44.5950719,103.477319 C44.4730294,103.310735 44.3057569,103.182661 44.1131056,103.108296 C42.0432955,102.106323 39.6828341,101.919757 37.3846034,101.841026 C36.2163597,101.801004 35.0476238,101.784544 33.8783957,101.791643 C32.8862041,101.797693 31.6950772,101.654135 30.7304401,101.919249 C29.435835,102.275056 28.7314055,104.92792 29.3881988,105.984206 Z" id="Path" fill="#2F2E41"></path>
                    <path d="M42.3849618,72.7108358 C39.672953,72.6868128 37.2153079,70.8967258 34.5035421,70.853118 C34.1759118,70.8304551 33.8476457,70.8870951 33.5465537,71.0182396 C33.1686797,71.2085909 32.9202396,71.5766566 32.6331925,71.8875013 C31.8313682,72.7557977 30.6702467,73.2194108 29.8465022,74.0669317 C29.074126,74.8615954 28.6445732,76.0455599 28.9495084,77.1109547 C29.2544437,78.1763496 30.4053256,78.9935617 31.4834925,78.7374374 C31.9178773,77.3314052 32.8144047,76.1132936 34.0277409,75.2805679 C34.6590641,74.875623 35.3244126,74.5263571 36.0162644,74.2367187 C37.2350612,73.6845146 38.5979468,73.1217551 39.8703673,73.5356877 C40.3396266,73.7128946 40.7821066,73.9541857 41.1852174,74.2526957 L43.3065803,75.6777178 C43.0593966,74.70274 42.8371269,73.6092937 42.3849618,72.7108358 Z" id="Path" fill="#00ABE6"></path>
                    <path d="M31.1711091,77.7948429 C30.8109849,78.2441029 31.3297604,78.895047 31.2503567,79.4653256 C31.1976043,79.8442289 30.8857941,80.1335404 30.7559468,80.4933878 C30.6214463,80.8661278 30.6927702,81.2790133 30.6417604,81.6719716 C30.5905708,81.957727 30.5148637,82.2385424 30.4154783,82.5113043 C30.1870085,83.3261378 30.0275351,84.1587573 29.9387471,85.0003443 L29.4640532,88.5452511 C29.3816794,89.0787404 29.3315441,89.6167107 29.3139201,90.1562343 C29.3378498,90.5594758 29.3108935,90.9641257 29.2336877,91.36063 C29.1285732,91.7480302 28.8958243,92.0869388 28.7392493,92.456543 C28.5826744,92.8261473 28.5100976,93.2732245 28.7216149,93.6143691 C28.0132848,94.2043531 27.802669,95.3630399 28.2979556,96.1405448 C28.3922413,96.2616834 28.4659901,96.3974856 28.5162573,96.5425288 C28.543632,96.7452847 28.5101699,96.9516029 28.4201154,97.1353132 L27.9401331,98.4142218 C27.8172724,98.7415847 27.7784153,99.2399787 28.1199947,99.3147045 C27.8370619,99.6085392 27.6166317,99.9566806 27.4720213,100.338096 C27.3294721,100.727235 27.394484,101.162149 27.644598,101.492593 C27.7638521,101.59722 27.865395,101.72045 27.9452919,101.857508 C27.9922345,102.048449 27.9801143,102.249141 27.9105342,102.433045 C27.7654671,102.997578 27.8600615,103.596962 28.1719361,104.089381 C28.4986367,104.580493 29.0849393,104.831808 29.6658953,104.729757 C30.6260461,104.513198 31.4888341,104.171336 32.4569423,104.348974 C34.5414144,104.731457 36.6325927,105.115592 38.6514729,105.760154 C40.9556433,106.495807 43.1867098,107.574605 45.5948376,107.801051 C45.753274,107.833465 45.9180834,107.80783 46.059189,107.728823 C46.1818926,107.61255 46.258198,107.455674 46.2739184,107.287363 C46.5220106,106.124108 46.7701059,104.960854 47.0182041,103.797601 C47.3181351,102.508181 47.5465376,101.203164 47.7023656,99.8885235 C47.7870896,99.0400319 47.8112405,98.1867968 47.8353381,97.3344259 L48.0271464,90.5498545 C48.1170175,89.5499554 47.9836671,88.5425775 47.6367294,87.6005004 L46.5333611,84.0781757 C45.9037019,82.068087 44.4592298,80.2855847 43.9449388,78.2429317 C43.6194428,76.9501189 43.3789885,75.5627329 42.5060941,74.5550878 C41.2616628,73.1185448 39.1086318,72.8951056 37.2241544,73.1420941 C36.3728199,73.2536752 35.514197,73.4462325 34.7777977,73.887748 C33.9262893,74.3982751 33.2989902,75.2024969 32.6921083,75.9882449 C32.1919539,76.6358137 31.6828749,77.1564082 31.1711091,77.7948429 Z" id="Path" fill="#00ABE6"></path>
                    <path d="M35.5712724,97.7503957 C35.7265359,98.4198829 36.0526087,99.0371872 36.2521952,99.6948217 C36.5865998,100.796646 36.5582165,101.983306 36.8919663,103.085329 C37.0320497,103.547878 37.2350098,103.991984 37.3355528,104.464701 C37.5699645,105.566843 37.2277036,106.707043 36.8025448,107.75055 C36.377386,108.794057 35.8596043,109.822955 35.7215865,110.941255 C35.6243762,111.728919 35.7640231,112.618295 36.3711304,113.129455 C37.0014215,113.660135 37.9173736,113.624197 38.7382893,113.55359 C39.033006,113.545349 39.3239102,113.484775 39.5974215,113.374696 C40.2252227,113.077693 40.4896433,112.334795 40.636394,111.655973 C41.1281917,109.381063 40.987693,107.023106 40.8447737,104.700035 L40.4710151,98.624756 C40.3990594,97.4551358 40.3219681,96.2612972 39.9615546,95.1382538 C39.830449,94.7297356 39.6019343,93.904213 39.2287826,93.6433629 C38.8591996,93.3850062 37.8037711,93.3734996 37.3461686,93.3520106 C35.1992635,93.2511872 35.223331,96.2477374 35.5712724,97.7503957 Z" id="Path" fill="#FBBEBE"></path>
                    <path d="M37.9499805,75.3191659 C37.5115209,75.0895617 36.9591074,75.1885537 36.5352884,75.444181 C36.1260722,75.7243918 35.767667,76.0723711 35.4755013,76.4731393 C34.5280444,77.629638 33.525063,78.9566602 33.665583,80.4450896 C33.7182697,81.0031588 33.9319539,81.5313132 34.0768287,82.0728199 C34.7120444,84.4472014 34.0096167,86.9583833 34.090213,89.4149441 C34.1367844,90.834417 34.4456575,92.2306282 34.7532653,93.6171535 C34.8160426,93.9001189 34.9165909,94.2276859 35.1903265,94.3229689 C35.3959574,94.3945466 35.6180692,94.3025235 35.8215865,94.2251393 C37.3603072,93.6565595 39.0795489,93.8732492 40.429063,94.8058563 C40.9374925,94.5345714 40.7469778,93.6767329 40.6329902,93.1118385 C40.2943177,91.4334587 40.7540515,89.7020106 41.3123815,88.0833913 C41.8707116,86.464772 42.5387489,84.848197 42.6312547,83.138488 C42.7360657,81.2012972 42.0937657,79.3105004 41.4600266,77.4769086 C41.3216983,77.0766815 41.1705253,76.6569973 40.849803,76.3804916 C40.5752341,76.1763193 40.2605672,76.0325609 39.9264809,75.9586637 C39.2533434,75.7597054 38.5718119,75.644795 37.9499805,75.3191659 Z" id="Path" fill="#2F2E41"></path>
                </g>
            </g>
        </g>
    </g>
</svg>