<?xml version="1.0" encoding="UTF-8"?>
<svg width="216px" height="118px" viewBox="0 0 216 118" version="1.1" xmlns="http://www.w3.org/2000/svg" xmlns:xlink="http://www.w3.org/1999/xlink">
    <!-- Generator: sketchtool 63.1 (101010) - https://sketch.com -->
    <title>1B11EE68-191E-4FEC-BDEC-6EBB489B1944</title>
    <desc>Created with sketchtool.</desc>
    <g id="Page-1" stroke="none" stroke-width="1" fill="none" fill-rule="evenodd">
        <g id="03b.-Add-client" transform="translate(-602.000000, -404.000000)">
            <g id="---MANAGE-CLIENTS---" transform="translate(-3.000000, 0.000000)">
                <g id="::-Client-List-::" transform="translate(111.000000, 183.000000)">
                    <g id="---EMPTY-PLACEHOLDER---" transform="translate(485.000000, 221.000000)">
                        <g id="Illustration" transform="translate(9.000000, 0.000000)">
                            <path d="M213.711504,109.471959 C212.8732,111.543069 211.841194,113.530191 210.629262,115.406798 C210.060836,116.301652 209.437296,117.160192 208.762261,117.977434 C208.756274,117.985735 208.74934,117.993308 208.7416,118 L0,118 L0.0281740586,117.977434 C0.216001116,117.830756 1.31854594,116.937521 3.03340697,115.406798 C4.26367419,114.31047 5.8076126,112.885056 7.54125634,111.170045 C21.7203209,97.2073755 48.9571224,64.1576897 26.2732487,33.8817329 C5.18590504,5.73637601 27.8904397,0.628953724 42.8677692,0.0328370585 C48.6221669,-0.19286031 54.3628596,0.746719174 59.7459086,2.79528306 C66.6654573,5.42797495 79.3118531,9.46351553 95.7880425,11.3139218 C96.3289845,11.3740977 96.8736829,11.4342735 97.4258945,11.4888078 C106.148929,12.3780355 114.930816,12.5378037 123.68036,11.9664533 L123.68036,11.9664533 C123.937684,11.9514094 124.196885,11.9326044 124.457965,11.9137995 C133.113445,11.3053029 141.703136,9.97494116 150.13768,7.93655423 C150.684256,7.80303914 151.22332,7.67704603 151.760506,7.55105292 C179.865068,1.04078196 205.773932,23.2287332 199.295777,48.303243 C196.900982,57.5778405 197.509542,67.4635985 205.49407,75.4613404 C218.566833,88.5157312 216.983451,101.37267 213.711504,109.471959 Z" id="Path" fill="#44507F" fill-rule="nonzero" opacity="0.1"></path>
                            <path d="M214,109.255679 C213.160454,111.384949 212.126919,113.427872 210.91319,115.357177 C210.343923,116.27716 209.719458,117.159809 209.043422,118 L0,118 C0.188105409,117.849203 1.29228416,116.930884 3.00968655,115.357177 C4.24177698,114.230063 5.78800345,112.764621 7.52421637,111.00145 L29.557003,106.322861 C29.841688,106.262501 30.1316081,106.232056 30.4222879,106.231996 L53.9110103,106.197197 L53.935464,106.197197 L65.5697836,106.18173 L65.5961183,106.18173 L75.4152207,106.17013 L81.8427826,106.17013 L81.8427826,106.17013 L88.4264719,106.17013 L115.40455,106.131464 L115.447814,106.131464 L117.537665,106.131464 L121.209483,106.131464 L125.793611,106.131464 L127.012535,106.131464 L131.645571,106.077332 L133.176749,106.077332 L146.65262,106.057999 L150.956472,106.057999 L150.956472,106.057999 L153.025632,106.057999 L153.025632,106.057999 L168.591354,106.036733 L173.226271,106.036733 L187.969973,106.015466 L200.415027,106 C200.761619,106.000197 201.10698,106.042376 201.443964,106.125665 L214,109.255679 Z" id="Path" fill="#454B69" fill-rule="nonzero"></path>
                            <path d="M3.01092531,115 L211,115 C210.430498,116.044318 209.805776,117.046257 209.129463,118 L0,118 C0.184419175,117.817849 1.2890524,116.775421 3.01092531,115 Z" id="Path"></path>
                            <path d="M3.01092531,115 L211,115 C210.430498,116.044318 209.805776,117.046257 209.129463,118 L0,118 C0.184419175,117.817849 1.2890524,116.775421 3.01092531,115 Z" id="Path" fill="#000000" fill-rule="nonzero" opacity="0.4"></path>
                            <path d="M47.8301401,98 L50.1698599,98 C52.8374726,98 55,100.162527 55,102.83014 L55,110 L43,110 L43,102.83014 C43,101.549107 43.5088883,100.320542 44.4147153,99.4147153 C45.3205423,98.5088883 46.5491073,98 47.8301401,98 Z" id="Path" fill="#3F3D56" fill-rule="nonzero"></path>
                            <path d="M47.8301401,98 L50.1698599,98 C52.8374726,98 55,100.162527 55,102.83014 L55,110 L43,110 L43,102.83014 C43,101.549107 43.5088883,100.320542 44.4147153,99.4147153 C45.3205423,98.5088883 46.5491073,98 47.8301401,98 Z" id="Path" fill="#000000" fill-rule="nonzero" opacity="0.1"></path>
                            <circle id="Oval" fill="#3F3D56" fill-rule="nonzero" cx="49" cy="100" r="1"></circle>
                            <circle id="Oval" fill="#3F3D56" fill-rule="nonzero" cx="49" cy="98" r="1"></circle>
                            <circle id="Oval" fill="#3F3D56" fill-rule="nonzero" cx="49" cy="97" r="1"></circle>
                            <circle id="Oval" fill="#3F3D56" fill-rule="nonzero" cx="49" cy="96" r="1"></circle>
                            <circle id="Oval" fill="#3F3D56" fill-rule="nonzero" cx="49" cy="95" r="1"></circle>
                            <circle id="Oval" fill="#3F3D56" fill-rule="nonzero" cx="49" cy="94" r="1"></circle>
                            <circle id="Oval" fill="#3F3D56" fill-rule="nonzero" cx="49" cy="93" r="1"></circle>
                            <circle id="Oval" fill="#3F3D56" fill-rule="nonzero" cx="50" cy="93" r="1"></circle>
                            <circle id="Oval" fill="#3F3D56" fill-rule="nonzero" cx="51" cy="93" r="1"></circle>
                            <circle id="Oval" fill="#3F3D56" fill-rule="nonzero" cx="52" cy="92" r="1"></circle>
                            <circle id="Oval" fill="#3F3D56" fill-rule="nonzero" cx="49" cy="91" r="1"></circle>
                            <circle id="Oval" fill="#3F3D56" fill-rule="nonzero" cx="49" cy="90" r="1"></circle>
                            <circle id="Oval" fill="#3F3D56" fill-rule="nonzero" cx="49" cy="89" r="1"></circle>
                            <circle id="Oval" fill="#3F3D56" fill-rule="nonzero" cx="49" cy="88" r="1"></circle>
                            <path d="M52.914693,85.3223135 C52.6796321,85.3564349 52.4445711,85.3810782 52.2095102,85.3962433 C52.4280407,85.2055693 52.6308964,84.9976442 52.8161191,84.774475 C52.6855866,84.378587 52.4936829,84.0056576 52.2474233,83.6693199 C52.0138981,83.8004961 51.7557094,83.8818248 51.4891622,83.9081699 C51.2559969,83.9422913 51.0209359,83.9669346 50.785875,83.9839953 C51.0948664,83.7318759 51.3830056,83.3527489 51.68631,83.0361778 C50.2857664,81.766796 48.1877979,81.6511105 46.6561757,82.7588079 C45.1245535,83.8665053 44.5774417,85.8951616 45.3444087,87.6227578 C46.1113756,89.350354 47.9830238,90.3052212 49.8319125,89.9121678 C51.6808011,89.5191144 53.002146,87.8854521 53,85.9952639 C53,85.764554 52.9797661,85.5342884 52.9393365,85.3071484 L52.914693,85.3223135 Z" id="Path" fill="#00ABE6" fill-rule="nonzero"></path>
                            <path d="M55.9767193,89.4891896 C55.7220551,89.6458638 55.4345771,89.741458 55.1367997,89.7684855 C54.8896463,89.8046534 54.6404836,89.8327839 54.3913209,89.8488585 C54.6561433,89.6113274 54.9032829,89.3547926 55.1307716,89.0812969 C53.8830638,88.7559962 52.5926444,89.4331047 52.1513871,90.6446387 C51.7101299,91.8561727 52.2628434,93.2045397 53.4275196,93.7578153 C54.5921958,94.3110909 55.9866196,93.8877051 56.6470344,92.7802812 C57.3074493,91.6728573 57.0171249,90.2448216 55.9767193,89.4831616 L55.9767193,89.4891896 Z" id="Path" fill="#00ABE6" fill-rule="nonzero"></path>
                            <circle id="Oval" fill="#3F3D56" fill-rule="nonzero" cx="48" cy="93" r="1"></circle>
                            <circle id="Oval" fill="#3F3D56" fill-rule="nonzero" cx="47" cy="93" r="1"></circle>
                            <circle id="Oval" fill="#3F3D56" fill-rule="nonzero" cx="46" cy="92" r="1"></circle>
                            <path d="M42.0232807,89.4891896 C42.2779449,89.6458638 42.5654229,89.741458 42.8632003,89.7684855 C43.1103537,89.8046534 43.3595164,89.8327839 43.6086791,89.8488585 C43.3433572,89.6118454 43.0961808,89.3552724 42.8692284,89.0812969 C44.1169362,88.7559962 45.4073556,89.4331047 45.8486129,90.6446387 C46.2898701,91.8561727 45.7371566,93.2045397 44.5724804,93.7578153 C43.4078042,94.3110909 42.0133804,93.8877051 41.3529656,92.7802812 C40.6925507,91.6728573 40.9828751,90.2448216 42.0232807,89.4831616 L42.0232807,89.4891896 Z" id="Path" fill="#00ABE6" fill-rule="nonzero"></path>
                            <path d="M47.8336015,98 L50.1721918,98 C52.8385167,98 55,100.16253 55,102.830142 L55,109.180808 C55,109.633235 54.6334124,110 54.1812037,110 L43.8187963,110 C43.601638,110 43.393374,109.913693 43.2398199,109.760064 C43.0862658,109.606436 43,109.398072 43,109.180808 L43,102.830142 C43,101.548105 43.5094369,100.318661 44.4160799,99.4126675 C45.322723,98.5066739 46.5521837,97.998465 47.8336015,98 Z" id="Path" fill="#3F3D56" fill-rule="nonzero"></path>
                            <g id="Group" opacity="0.1" transform="translate(45.000000, 82.000000)" fill="#000000" fill-rule="nonzero">
                                <path d="M7.8772093,3.54236842 C7.78359848,3.64138369 7.68420301,3.73487756 7.57953488,3.82236842 C7.6855814,3.82236842 7.78976744,3.80578947 7.89581395,3.79473684 C7.89209302,3.71 7.88651163,3.62526316 7.8772093,3.54236842 Z" id="Path"></path>
                                <path d="M6.19162791,2.44815789 C6.42418605,2.43342105 6.65302326,2.40947368 6.88372093,2.37631579 C7.09069685,2.3503473 7.29297485,2.29578135 7.48465116,2.21421053 C7.39054876,2.03004989 7.28232463,1.85330387 7.16093023,1.68552632 C7.04521014,1.755282 6.91987072,1.80802557 6.78883721,1.84210526 C6.60639919,2.05955976 6.40669309,2.26222305 6.19162791,2.44815789 L6.19162791,2.44815789 Z" id="Path"></path>
                                <path d="M0.507906977,4.41368421 C0.505085625,2.99101434 1.28822633,1.68071428 2.54909827,0.998495778 C3.80997021,0.316277278 5.34668527,0.371375707 6.5544186,1.14210526 L6.61395349,1.07947368 C5.56108533,0.151924526 4.08684609,-0.145635297 2.75129623,0.29983658 C1.41574638,0.745308456 0.423852149,1.86544566 0.152432131,3.23471036 C-0.118987888,4.60397507 0.371721014,6.01222683 1.43813953,6.92447368 C0.836445737,6.22366203 0.506645915,5.33349977 0.507906977,4.41368421 Z" id="Path"></path>
                            </g>
                            <g id="Group" opacity="0.1" transform="translate(52.000000, 89.000000)" fill="#000000" fill-rule="nonzero">
                                <path d="M2.43846154,1.46357143 C2.67692308,1.44642857 2.91538462,1.41857143 3.15192308,1.38 C3.43705535,1.35044805 3.71218185,1.24776926 3.95576923,1.08 C4.50183211,1.52812506 4.8513681,2.21361507 4.91730769,2.96571429 C4.92663538,2.87250914 4.93113003,2.77878202 4.93076923,2.685 C4.93444493,1.84093844 4.5774291,1.04530316 3.96923077,0.542142857 C3.72550411,0.709229139 3.45037291,0.811176248 3.16538462,0.84 L2.97307692,0.867857143 C2.80896882,1.08153881 2.63022714,1.28070811 2.43846154,1.46357143 Z" id="Path"></path>
                                <path d="M2.53461538,0.555 C2.61438075,0.55601433 2.69401611,0.562454886 2.77307692,0.574285714 C2.89807692,0.426428571 3.02115385,0.267857143 3.14615073,0.113571429 C2.42957498,-0.0997117827 1.66473149,0.0706880149 1.07684046,0.574594612 C0.488949432,1.07850121 0.144956295,1.85853281 0.14615073,2.685 C0.14615073,2.775 0.14615073,2.86285714 0.157692308,2.95071429 C0.280186601,1.59040693 1.30769658,0.554773776 2.53461538,0.555 Z" id="Path"></path>
                            </g>
                            <g id="Group" opacity="0.1" transform="translate(41.000000, 89.000000)" fill="#000000" fill-rule="nonzero">
                                <path d="M2.61,1.46357143 C2.362,1.44642857 2.114,1.41857143 1.868,1.38 C1.57146243,1.35044805 1.28533088,1.24776926 1.032,1.08 C0.464094606,1.52812506 0.100577179,2.21361507 0.032,2.96571429 C0.0222992017,2.87250914 0.0176247701,2.77878202 0.018,2.685 C0.0141772686,1.84093844 0.385473732,1.04530316 1.018,0.542142857 C1.27147573,0.709229139 1.55761217,0.811176248 1.854,0.84 L2.054,0.867857143 C2.22359439,1.08260458 2.40956906,1.28186316 2.61,1.46357143 L2.61,1.46357143 Z" id="Path"></path>
                                <path d="M2.51,0.555 C2.42638281,0.556094796 2.3429011,0.562534813 2.26,0.574285714 C2.132,0.426428571 2.004,0.267857143 1.874,0.113571429 C2.61924202,-0.0997117827 3.41467925,0.0706880149 4.02608592,0.574594612 C4.63749259,1.07850121 4.99524545,1.85853281 4.99400324,2.685 C4.99400324,2.775 4.99400324,2.86285714 4.982,2.95071429 C4.85460593,1.59040693 3.78599555,0.554773776 2.51,0.555 Z" id="Path"></path>
                            </g>
                            <path d="M37.2295709,112 L18.7835319,112 C18.3507992,112 18,111.659336 18,111.239106 L18,102.7611 C18,102.500109 18.1376048,102.257293 18.3647533,102.1178 C18.5919017,101.978307 18.8768215,101.961603 19.119601,102.073546 C24.4192971,104.51574 30.1286955,105.353639 36.8670694,102.112049 C37.1098872,101.995754 37.397264,102.009105 37.6275409,102.147379 C37.8578178,102.285653 37.9985246,102.529352 38,102.79227 L38,111.226272 C38.0034214,111.428082 37.9242423,111.622987 37.7797738,111.768095 C37.6353053,111.913204 37.437386,111.996625 37.2295709,112 Z" id="Path" fill="#00ABE6" fill-rule="nonzero"></path>
                            <path d="M37.2295709,112 L18.7835319,112 C18.3507992,112 18,111.659336 18,111.239106 L18,102.7611 C18,102.500109 18.1376048,102.257293 18.3647533,102.1178 C18.5919017,101.978307 18.8768215,101.961603 19.119601,102.073546 C24.4192971,104.51574 30.1286955,105.353639 36.8670694,102.112049 C37.1098872,101.995754 37.397264,102.009105 37.6275409,102.147379 C37.8578178,102.285653 37.9985246,102.529352 38,102.79227 L38,111.226272 C38.0034214,111.428082 37.9242423,111.622987 37.7797738,111.768095 C37.6353053,111.913204 37.437386,111.996625 37.2295709,112 Z" id="Path" fill="#000000" fill-rule="nonzero" opacity="0.1"></path>
                            <ellipse id="Oval" fill="#3F3D56" fill-rule="nonzero" cx="28" cy="104.5" rx="1" ry="1.5"></ellipse>
                            <ellipse id="Oval" fill="#3F3D56" fill-rule="nonzero" cx="28" cy="102.5" rx="1" ry="1.5"></ellipse>
                            <ellipse id="Oval" fill="#3F3D56" fill-rule="nonzero" cx="28" cy="101.5" rx="1" ry="1.5"></ellipse>
                            <ellipse id="Oval" fill="#3F3D56" fill-rule="nonzero" cx="28" cy="99.5" rx="1" ry="1.5"></ellipse>
                            <ellipse id="Oval" fill="#3F3D56" fill-rule="nonzero" cx="28" cy="97.5" rx="1" ry="1.5"></ellipse>
                            <ellipse id="Oval" fill="#3F3D56" fill-rule="nonzero" cx="28" cy="95.5" rx="1" ry="1.5"></ellipse>
                            <ellipse id="Oval" fill="#3F3D56" fill-rule="nonzero" cx="28" cy="94.5" rx="1" ry="1.5"></ellipse>
                            <path d="M31.9250605,82.3379915 C32.0665897,82.1508529 32.196112,81.9544266 32.3128043,81.7499614 L29.5715463,81.2862153 L32.5364332,81.3084751 C33.1146004,80.0200426 33.1491934,78.5430832 32.6320165,77.2275089 L28.6553891,79.3496113 L32.323625,76.5671344 C31.3874196,74.9018191 29.6255311,73.9135734 27.7574402,74.0059551 C25.8893493,74.0983368 24.2277623,75.2558818 23.4512009,77.0058977 C22.6746395,78.7559136 22.9130951,80.8054591 24.0691924,82.3175867 C23.8463368,82.6073527 23.655218,82.921506 23.4992993,83.2543539 L27.0557208,85.176118 L23.2684566,83.8590789 C22.7291877,85.5036901 23.0322958,87.3171057 24.0746028,88.6820389 C22.4631826,90.7892819 22.6969872,93.8165269 24.6116545,95.6356544 C26.5263218,97.4547819 29.4787519,97.4547819 31.3934192,95.6356544 C33.3080866,93.8165269 33.5418911,90.7892819 31.9304709,88.6820389 C33.3561918,86.8174342 33.3561918,84.1914664 31.9304709,82.3268616 L31.9250605,82.3379915 Z" id="Path" fill="#00ABE6" fill-rule="nonzero"></path>
                            <path d="M23,85.078531 C22.998435,86.2741032 23.3754599,87.4352478 24.070072,88.3738519 C22.4578338,90.5591698 22.691757,93.6985767 24.6073963,95.5851043 C26.5230356,97.4716319 29.4769644,97.4716319 31.3926037,95.5851043 C33.308243,93.6985767 33.5421662,90.5591698 31.929928,88.3738519 C32.599351,87.4677829 23,84.4802562 23,85.078531 Z" id="Path" fill="#000000" fill-rule="nonzero" opacity="0.1"></path>
                            <path d="M37.2296705,113 L18.7835359,113 C18.350801,113 18,112.641379 18,112.198998 L18,102.80122 C18,102.526471 18.1376055,102.270856 18.3647551,102.124009 C18.5919048,101.977163 18.876826,101.959579 19.1196068,102.077423 C24.4193304,104.648349 28.6221037,107.645833 36.8671672,102.117955 C37.3561691,101.789834 38,102.237623 38,102.834032 L38,112.195138 C38.0021191,112.633797 37.6587093,112.992606 37.2296705,113 Z" id="Path" fill="#00ABE6" fill-rule="nonzero"></path>
                            <polygon id="Path" fill="#9C9CA1" fill-rule="nonzero" points="173 110.306797 145.708142 113.824748 144.342981 114 131 107.056336 131 105.431105 172.697052 101"></polygon>
                            <polygon id="Path" fill="#939498" fill-rule="nonzero" points="139 107.413775 168 104 167.70285 109.34596 145.113865 111"></polygon>
                            <path d="M146,111.975048 L146,113.80641 L144.607929,114 L131,106.705528 L131,105 L143.988158,111.969241 C143.988158,111.969241 145.69108,112.12992 146,111.975048 Z" id="Path" fill="#000000" fill-rule="nonzero" opacity="0.4"></path>
                            <path d="M151.076627,84.3740401 L145.040724,112.79998 C144.91724,113.37752 145.07837,113.979956 145.472593,114.414658 C145.866816,114.849361 146.444752,115.061879 147.021604,114.984259 L185.20858,109.850351 C185.88732,109.75946 186.455265,109.282689 186.670925,108.62276 L194.909673,83.3889359 C195.094471,82.8205645 194.992077,82.1962306 194.635858,81.7193883 C194.279639,81.2425459 193.715211,80.974258 193.126507,81.0019525 L152.740418,82.9494278 C151.932737,82.9882948 151.250915,83.5721015 151.076627,84.3740401 L151.076627,84.3740401 Z" id="Path" fill="#3F3D56" fill-rule="nonzero"></path>
                            <ellipse id="Oval" fill="#FFFFFF" fill-rule="nonzero" transform="translate(171.352974, 94.330835) rotate(-84.000000) translate(-171.352974, -94.330835) " cx="171.352974" cy="94.3308347" rx="1.63470653" ry="1.04995222"></ellipse>
                        </g>
                    </g>
                </g>
            </g>
        </g>
    </g>
</svg>