<?xml version="1.0" encoding="UTF-8"?>
<svg width="259px" height="110px" viewBox="0 0 259 110" version="1.1" xmlns="http://www.w3.org/2000/svg" xmlns:xlink="http://www.w3.org/1999/xlink">
    <!-- Generator: sketchtool 63.1 (101010) - https://sketch.com -->
    <title>B1899B35-0F1A-4709-A783-6F89F59873D3</title>
    <desc>Created with sketchtool.</desc>
    <defs>
        <linearGradient x1="37.7391394%" y1="122.238411%" x2="37.7468709%" y2="122.238411%" id="linearGradient-1">
            <stop stop-color="#808080" stop-opacity="0.25" offset="0%"></stop>
            <stop stop-color="#808080" stop-opacity="0.12" offset="54%"></stop>
            <stop stop-color="#808080" stop-opacity="0.1" offset="100%"></stop>
        </linearGradient>
    </defs>
    <g id="Page-1" stroke="none" stroke-width="1" fill="none" fill-rule="evenodd">
        <g id="01.-Add-a-team-member" transform="translate(-582.000000, -416.000000)">
            <g id="---EMPTY-PLACEHOLDER---" transform="translate(571.000000, 369.000000)">
                <g id="Illustration" transform="translate(7.000000, 0.000000)">
                    <path d="M261.024461,140.65978 C259.783697,143.037691 258.037634,145.119332 255.907131,146.760618 C255.604541,147.001557 255.295277,147.233654 254.981562,147.461331 C254.558826,147.756057 254.125707,148.045626 253.682205,148.330037 C250.235795,150.502908 246.199779,151.988329 242.259435,153.071449 C241.185538,153.366175 240.107932,153.643218 239.026618,153.902578 C238.114398,154.122149 237.201437,154.326984 236.287734,154.517082 C235.940646,154.592238 235.593557,154.662972 235.246469,154.738127 C234.89938,154.813282 234.501119,154.886227 234.134006,154.959172 L233.606698,155.058642 C223.412088,156.926471 213.083981,157.282353 202.680228,156.813738 L202.186294,156.789423 L201.396445,156.749635 C199.284249,156.640587 197.169828,156.501328 195.053181,156.331861 L194.252208,156.267758 L193.898445,156.239022 C192.711818,156.140288 191.52519,156.031976 190.338563,155.914086 C188.775182,155.766723 187.209576,155.603886 185.641745,155.425577 L185.439276,155.403472 L185.274632,155.383578 L185.274632,155.383578 C179.678943,154.758021 174.069905,154.006469 168.454192,153.235022 L167.659893,153.1245 L166.233715,152.92777 L165.032255,152.761986 L165.032255,152.761986 L164.676267,152.713356 C162.78063,152.449576 160.884993,152.188743 158.989357,151.930858 L158.682317,151.888859 C155.122435,151.404771 151.542529,150.938366 147.973748,150.51396 L147.508739,150.458699 L147.508739,150.458699 C146.047704,150.286284 144.587411,150.121974 143.127859,149.965769 L142.015396,149.848615 L140.535821,149.700515 C136.435282,149.296003 132.336968,148.973277 128.247555,148.772127 C126.28072,148.674867 124.309436,148.601185 122.333701,148.551082 C120.702089,148.514241 119.070477,148.492873 117.438864,148.486979 C115.225805,148.476663 113.008295,148.489189 110.786336,148.524556 L110.786336,148.524556 L110.283502,148.524556 C107.153031,148.575397 104.015886,148.663815 100.876515,148.769916 L100.311384,148.7876 L100.12449,148.7876 C93.4497125,149.021907 86.7749346,149.33358 80.1179562,149.556836 L78.4915353,149.609887 L78.2556931,149.609887 C75.9417701,149.683568 73.6300721,149.740303 71.3205989,149.780091 L70.7087443,149.780091 L70.6887199,149.780091 L69.9455947,149.780091 L68.913229,149.793354 C67.8408147,149.803669 66.7706253,149.809564 65.7026609,149.811037 L64.3921795,149.811037 C60.4718599,149.799985 56.5671149,149.713778 52.686844,149.512627 L52.2552084,149.488312 C44.7149343,149.0838 37.2592074,148.24825 29.9369761,146.729672 C29.1790179,146.571993 28.4225431,146.406947 27.6675516,146.234532 C22.6078657,145.107474 17.6399001,143.606833 12.8050462,141.745111 C10.526722,140.860931 8.23504824,139.839704 6.50183092,138.111133 C2.10537722,133.690236 3.75627228,125.031909 9.47655692,122.514208 C13.950883,120.544699 19.1928086,122.147274 24.0053234,121.258673 C24.3010285,121.202666 24.5930326,121.128848 24.8797193,121.037629 C25.4915211,120.84164 26.086703,120.597725 26.6596601,120.308181 C26.8554536,120.210921 27.0512471,120.10703 27.2492655,119.998718 C27.6942507,119.757779 28.1392359,119.490315 28.5664217,119.198535 C29.2647705,118.737037 29.9335403,118.232818 30.568855,117.688799 C30.850679,117.450071 31.1250865,117.2025 31.3920776,116.946088 C32.3160618,116.083752 33.1318408,115.11371 33.8216968,114.057032 C34.0728826,113.65727 34.2959085,113.240709 34.4891746,112.810339 C34.5937461,112.589294 34.687193,112.350566 34.7650654,112.120679 C34.8813447,111.788055 34.9698985,111.446495 35.0298316,111.099452 C35.3101722,109.459299 34.8562874,107.858934 33.2765899,106.50614 C33.1351017,106.386155 32.9865072,106.274696 32.8316047,106.172362 C32.5255708,105.961458 32.2026117,105.775893 31.8659869,105.61754 C31.7302664,105.553437 31.590096,105.491544 31.4477008,105.431862 C29.4141185,104.580839 26.7909307,104.253693 24.5793543,103.663503 L24.5793543,103.663503 C23.905372,103.493742 23.2473354,103.266703 22.6125198,102.984895 C22.2098082,102.799218 21.8093215,102.604698 21.4155096,102.401337 L21.4155096,102.401337 L21.3109381,102.343865 L21.3109381,102.343865 C17.9481715,100.62134 14.9908492,98.2106087 12.6337269,95.2704299 C12.0477704,94.5274285 11.5083218,93.7493581 11.0184306,92.9406171 C10.8693606,92.6974678 10.7247404,92.4476871 10.586795,92.1979064 C6.67760007,85.1907845 6.27488847,76.2119425 10.3420531,69.3219744 C10.8361471,68.4860694 11.3862003,67.6840818 11.9884983,66.9214273 C12.1842918,66.6694361 12.3867601,66.4218659 12.5959031,66.1787166 C16.4672743,61.6406657 22.0295892,58.5659318 27.6453023,56.2891698 C35.1833515,53.2343299 43.0751638,51.3046083 51.1182712,50.0336004 C52.7498836,49.7757147 54.3814959,49.5443544 56.0131083,49.3395195 C62.843631,48.4730237 69.754251,48.0132504 76.6159227,47.6639995 C83.0340924,47.341274 89.4804446,47.1327551 95.9549791,47.0384426 C98.1487561,47.0089699 100.344758,46.9964441 102.542985,47 C107.49567,47 112.448355,47.0959142 117.40104,47.2860128 C119.032653,47.3479054 120.664265,47.421587 122.295878,47.5070577 C126.480222,47.722208 130.656408,48.0169345 134.824436,48.3912371 C136.826869,48.5710202 138.824853,48.7692238 140.818386,48.9858478 C156.001281,50.6348424 170.963908,53.4310598 185.410352,57.7790121 C187.049381,58.2712053 188.680993,58.7869766 190.305189,59.3263261 C196.380365,61.3135011 202.350104,63.6057377 208.191369,66.1941897 C208.743151,66.4402863 209.293449,66.6878565 209.842264,66.9369004 C213.48966,68.5991577 217.08514,70.3903579 220.628705,72.3105008 C225.305254,74.8107973 229.809514,77.6168726 234.111757,80.7102053 C235.790834,81.9333202 237.422446,83.2094858 239.006594,84.5387022 C241.80705,86.8852313 244.418886,89.4453369 246.818309,92.195696 C247.031902,92.4417926 247.24327,92.6893628 247.452413,92.9384067 C248.538177,94.2337295 249.569059,95.5754718 250.54506,96.9636335 C255.306401,103.762973 258.501395,111.539331 260.859817,119.483683 C262.940122,126.41565 264.324026,134.198639 261.024461,140.65978 Z" id="Path" fill="#4A5375" fill-rule="nonzero" opacity="0.1"></path>
                    <path d="M257.853511,117.013597 L238.892097,117.013597 L238.892097,92.9744896 L247.326297,92.9744896 C247.117662,92.7252574 246.906807,92.4775 246.693732,92.2312173 L238.900975,92.2312173 L238.900975,84.5684337 C237.323632,83.2411617 235.695979,81.9640311 234.018017,80.7370418 L234.018017,92.2400658 L190.304444,92.2400658 L190.304444,66.9511101 L209.794105,66.9511101 C209.245142,66.7018779 208.696179,66.4541205 208.147217,66.2078378 L190.304444,66.2078378 L190.304444,59.334781 C188.676791,58.799448 187.049138,58.2832867 185.421485,57.786297 L185.421485,66.192353 L123.035036,66.192353 L122.886328,66.0507773 L140.933297,48.9776353 C138.944602,48.7593728 136.951467,48.5610193 134.953893,48.382575 L122.45574,60.2041442 L122.45574,47.5065755 C120.828087,47.4210402 119.200434,47.3473028 117.572782,47.2853635 L117.572782,61.0204164 L102.750784,47 C100.559372,47 98.368699,47.0125353 96.1787662,47.037606 L116.278798,66.0507773 L116.130089,66.192353 L56.3293885,66.192353 L56.3293885,49.3647563 C54.7017358,49.569746 53.0740831,49.8012813 51.4464303,50.0593619 L51.4464303,66.2078378 L13.0131105,66.2078378 C12.804475,66.451171 12.6024981,66.6989284 12.4071798,66.9511101 L51.4419913,66.9511101 L51.4419913,92.2312173 L11,92.2312173 C11.1376106,92.4811868 11.2818799,92.7311564 11.4305881,92.9744896 L51.4419913,92.9744896 L51.4419913,117.013597 L31.7614503,117.013597 C31.4951072,117.270203 31.2213656,117.517961 30.9402255,117.75687 L51.4419913,117.75687 L51.4419913,142.355644 C53.069644,142.587179 54.6972967,142.829038 56.3249495,143.081219 L56.3249495,117.75687 L117.568343,117.75687 L117.568343,148.578337 C119.195995,148.578337 120.823648,148.599721 122.451301,148.642489 L122.451301,117.75687 L185.417046,117.75687 L185.417046,155.489 L185.619023,155.511121 C187.18157,155.685142 188.743377,155.848101 190.304444,156 L190.304444,117.75687 L234.0047,117.75687 L234.0047,155.044364 C234.37758,154.975788 234.750461,154.902788 235.114463,154.823152 C235.478465,154.743516 235.806955,154.683789 236.153201,154.60194 C237.064687,154.408748 237.975432,154.203759 238.885438,153.986971 L238.885438,117.75687 L258,117.75687 C257.95117,117.509112 257.902341,117.261355 257.853511,117.013597 Z M117.568343,117.013597 L56.3293885,117.013597 L56.3293885,92.9744896 L117.568343,92.9744896 L117.568343,117.013597 Z M117.568343,92.2378536 L56.3293885,92.2378536 L56.3293885,66.9511101 L116.700508,66.9511101 L117.561684,67.6280188 L117.568343,92.2378536 Z M185.417046,117.013597 L122.45574,117.013597 L122.45574,92.9744896 L185.417046,92.9744896 L185.417046,117.013597 Z M185.417046,92.2378536 L122.45574,92.2378536 L122.45574,66.9511101 L185.417046,66.9511101 L185.417046,92.2378536 Z M234.0047,117.013597 L190.304444,117.013597 L190.304444,92.9744896 L234.0047,92.9744896 L234.0047,117.013597 Z" id="Shape" fill="#151A2B" fill-rule="nonzero" opacity="0.1"></path>
                    <path d="M70.0111158,150.963384 C70.0111158,150.987795 69.9933305,151.012205 69.986661,151.036616 L69.986661,151.036616 C69.986661,151.012205 70.0022232,150.987795 70.013339,150.963384 L70.0111158,150.963384 Z" id="Path" fill="#EAECF0" fill-rule="nonzero"></path>
                    <polygon id="Path" fill="#454B69" fill-rule="nonzero" points="71 149.986367 70.4372442 149.986367 70.4188267 149.986367 69.7353342 149.986367 68.7858117 150 68.6814461 148.802545 68.585266 147.666439 68.1391542 142.483526 68.1248295 142.324472 68.1248295 142.254033 68 140.795274 69.9113233 140 70.1446112 142.115428 70.1609823 142.272211 70.1609823 142.290389 70.6336971 146.584867 70.7789905 147.902749 70.8628922 148.668484 70.9345157 149.325153 70.9345157 149.347875"></polygon>
                    <polygon id="Path" fill="#3A3768" fill-rule="nonzero" points="79.0700296 150.963384 79.0944844 151.036616 78.9299704 151.036616 78.9055156 150.963384"></polygon>
                    <g id="Group"></g>
                    <path d="M111,121.534895 C111,121.579778 111,121.604464 111,121.604464 L111,121.631394 C111,121.631394 109.074418,126.979261 108.447278,131.543912 C108.404586,131.843135 108.369254,132.142358 108.341283,132.441581 C108.310368,132.75801 108.286077,133.067706 108.272828,133.368425 C108.255162,133.720761 108.250745,134.061875 108.259578,134.38728 C108.259578,134.461338 108.259578,134.53764 108.259578,134.611698 C108.259578,134.762057 108.275036,134.916905 108.283869,135.076242 C108.292702,135.235578 108.305951,135.394914 108.319201,135.560983 C108.33245,135.727052 108.345699,135.872924 108.361157,136.03226 C108.835928,140.969443 110.640057,148.197928 110.640057,148.197928 C110.640057,148.197928 110.69968,148.393171 110.776968,148.725309 L110.277907,148.725309 C107.170918,148.776925 104.057304,148.866692 100.941482,148.974412 L100.38059,148.992366 L100.195098,148.992366 C93.5703875,149.230248 86.9456774,149.546677 80.3386331,149.773338 L78.7244121,149.827199 L78.490339,149.827199 C76.1937728,149.902004 73.8994148,149.959605 71.6072651,150 L71,150 C71.1557882,149.776727 71.3349693,149.571303 71.5343933,149.38734 C71.7020391,149.229312 71.8830807,149.086627 72.0754113,148.960947 C73.1248317,148.295893 74.2678264,147.797201 75.4650547,147.482037 C75.71746,147.411911 75.9785478,147.379405 76.2401457,147.385537 L77.7859114,147.416956 L78.024401,147.416956 L80.3960473,147.464083 L100.738324,147.874767 L100.789113,147.874767 L100.932649,147.845593 C101.168803,147.785791 101.398775,147.703127 101.61941,147.598734 C102.39655,147.265514 102.945882,146.543844 103.068014,145.695674 C103.068014,145.626105 103.08568,145.552047 103.090096,145.471257 C103.096751,145.362145 103.096751,145.252719 103.090096,145.143607 C103.090096,145.067305 103.090096,144.986515 103.07243,144.90348 C103.054764,144.820446 103.050348,144.737412 103.03489,144.652133 C102.544662,141.867113 101.709948,133.294367 101.709948,133.294367 L101.709948,133.321298 C101.709948,133.321298 101.709948,132.955497 101.729822,132.340593 C101.729822,132.293466 101.729822,132.24185 101.729822,132.190234 L101.729822,132.057827 C101.729822,131.920933 101.74528,131.772817 101.754113,131.608993 C101.754113,131.512493 101.767362,131.41375 101.773987,131.310517 C101.785028,131.160158 101.798278,131.00531 101.811527,130.843729 C101.81047,130.834034 101.81047,130.82425 101.811527,130.814555 C101.82036,130.712819 101.829193,130.609587 101.838026,130.504859 C101.838026,130.504859 101.838026,130.482417 101.838026,130.471196 C102.167053,127.161039 103.202716,121.920893 106.475323,119.979682 C108.010047,119.066303 109.025836,118.882281 109.694932,119.061815 C110.670973,119.322139 110.916087,120.354459 110.969085,121.025467 C110.969085,121.070351 110.969085,121.11299 110.969085,121.155629 C110.986607,121.281336 110.996929,121.407971 111,121.534895 L111,121.534895 Z" id="Path" fill="#3A3768" fill-rule="nonzero"></path>
                    <path d="M70.0111158,150.963384 C70.0111158,150.987795 69.9933305,151.012205 69.986661,151.036616 L69.986661,151.036616 C69.986661,151.012205 70.0022232,150.987795 70.013339,150.963384 L70.0111158,150.963384 Z" id="Path" fill="#000000" fill-rule="nonzero" opacity="0.1"></path>
                    <polygon id="Path" fill="#000000" fill-rule="nonzero" opacity="0.1" points="79.0700296 150.963384 79.0944844 151.036616 78.9299704 151.036616 78.9055156 150.963384"></polygon>
                    <g id="Group" opacity="0.1"></g>
                    <path d="M111,121.61358 C111,121.658343 111,121.682962 111,121.682962 C111,121.682962 109.412891,126.080921 108.655759,130.297591 L108.655759,130.297591 C108.602781,130.59601 108.554219,130.884731 108.510071,131.163754 C108.487997,131.306995 108.468131,131.450236 108.448264,131.593478 C108.405588,131.891898 108.37027,132.190317 108.34231,132.488737 C108.311407,132.804316 108.287125,133.11318 108.273881,133.413092 C108.256222,133.764481 108.251807,134.104679 108.260637,134.42921 C108.260637,134.503069 108.260637,134.579166 108.260637,134.653025 C108.260637,134.802981 108.276089,134.957413 108.284918,135.116322 C108.293748,135.27523 108.306992,135.436377 108.320236,135.599761 C108.33348,135.763146 108.346725,135.910864 108.362176,136.069772 C108.377628,136.228681 108.39308,136.380875 108.410739,136.537545 C108.481375,137.170941 108.569671,137.83567 108.67121,138.511591 C109.362121,143.070696 110.640196,148.178148 110.640196,148.178148 C110.640196,148.178148 110.704211,148.384058 110.781469,148.728732 L110.781469,148.728732 L110.2826,148.728732 C107.176811,148.78021 104.0644,148.869736 100.949782,148.977167 L100.389107,148.995072 L100.203686,148.995072 C93.5815352,149.232316 86.9593841,149.547894 80.3548921,149.773947 L78.7412946,149.827663 L78.507312,149.827663 C76.2116329,149.902268 73.9181612,149.959713 71.626897,150 L71.0198665,150 L71,150 C71.1604363,149.76895 71.3455025,149.556535 71.5518459,149.366604 C71.7191075,149.206352 71.9009199,149.062472 72.0948623,148.93688 C73.1448237,148.27545 74.2870929,147.778221 75.4831963,147.461941 C75.7358148,147.393817 75.9966492,147.362171 76.257988,147.367939 L77.8031566,147.399273 L78.041554,147.399273 L80.4189062,147.446274 L100.768777,147.853617 L100.804095,147.853617 C100.804095,147.853617 100.863694,147.853617 100.963026,147.820045 C101.2013,147.760073 101.432831,147.67532 101.653937,147.567134 C102.413139,147.236618 102.952236,146.534557 103.082115,145.707234 C103.082115,145.637851 103.099774,145.563992 103.104189,145.483419 C103.110841,145.3746 103.110841,145.265468 103.104189,145.15665 C103.104189,145.080553 103.104189,144.999979 103.086529,144.917168 C103.06887,144.834356 103.064456,144.735878 103.049004,144.641876 C102.558965,141.864335 101.724574,133.314613 101.724574,133.314613 C101.724574,133.314613 101.724574,132.949795 101.74444,132.336543 C101.74444,132.289542 101.74444,132.238064 101.74444,132.186587 L101.74444,132.054536 C101.74444,131.918009 101.759892,131.770292 101.768721,131.606907 C101.768721,131.510666 101.781966,131.412188 101.788588,131.309233 C101.799625,131.159277 101.812869,131.004845 101.826113,130.843699 C101.825056,130.83403 101.825056,130.824272 101.826113,130.814603 C101.834943,130.71314 101.843772,130.610185 101.852602,130.505738 C101.852602,130.505738 101.852602,130.483357 101.852602,130.472166 C101.892335,130.060347 101.945312,129.617194 102.011534,129.153898 C102.470669,125.91306 103.618509,121.680724 106.479278,119.977494 C107.973677,119.082235 108.973622,118.894231 109.644666,119.048663 C110.677722,119.288145 110.922742,120.366932 110.969097,121.047329 C110.969097,121.092092 110.969097,121.134616 110.969097,121.177141 C110.988997,121.321758 110.999321,121.467564 111,121.61358 L111,121.61358 Z" id="Path" fill="#000000" fill-rule="nonzero" opacity="0.1"></path>
                    <path d="M70.0111158,150.963384 C70.0111158,150.987795 69.9933305,151.012205 69.986661,151.036616 L69.986661,151.036616 C69.986661,151.012205 70.0022232,150.987795 70.013339,150.963384 L70.0111158,150.963384 Z" id="Path" fill="#3A3768" fill-rule="nonzero"></path>
                    <polygon id="Path" fill="#3A3768" fill-rule="nonzero" points="79.0700296 150.963384 79.0944844 151.036616 78.9299704 151.036616 78.9055156 150.963384"></polygon>
                    <g id="Group"></g>
                    <path d="M109.991073,121.587059 C109.991073,121.587059 107.123424,129.516356 107.261862,134.261481 C107.4003,139.006607 109.639484,147.923174 109.639484,147.923174 C109.639484,147.923174 109.736171,148.236699 109.83945,148.737005 C106.747663,148.788147 103.649283,148.877091 100.548706,148.983823 L99.9905579,149.001611 L99.8059736,149.001611 C93.2136763,149.237311 86.621379,149.550836 80.0466611,149.775418 L78.440338,149.828784 L78.2074102,149.828784 C75.9220804,149.902904 73.6389481,149.959976 71.3580132,150 L70.7537193,150 L70.7339424,150 L70,150 C70.3024094,149.486543 70.7146291,149.048143 71.2063904,148.716993 L71.2657211,148.674745 C72.3119695,148.02845 73.4482866,147.544978 74.6365824,147.240534 C74.8880621,147.172853 75.1477206,147.141413 75.4078812,147.147143 L77.4383088,147.187168 L77.6756315,147.187168 L80.1213738,147.236087 L99.8433299,147.634108 C100.125442,147.580507 100.399482,147.490067 100.658577,147.365054 C100.744715,147.325012 100.828371,147.279716 100.909085,147.229416 L100.909085,147.229416 C101.156531,147.085144 101.379174,146.901155 101.568314,146.684638 C101.983629,146.206568 102.260506,145.495021 102.075921,144.461055 C101.585894,141.701589 100.757462,133.207503 100.757462,133.207503 C100.757462,133.207503 100.616826,122.87229 105.512706,119.970515 C107.490395,118.798687 108.602296,118.838711 109.224169,119.30344 C109.242774,119.315339 109.26041,119.328723 109.276907,119.343464 C110.133906,120.041669 109.991073,121.587059 109.991073,121.587059 Z" id="Path" fill="#3A3768" fill-rule="nonzero"></path>
                    <path d="M31,140.813413 L30.9152276,141.680279 L30.4018838,147 C29.599686,146.834219 28.7990581,146.660691 28,146.479416 L28.600471,141.643094 L28.8029827,140 L31,140.813413 Z" id="Path" fill="#454B69" fill-rule="nonzero"></path>
                    <polygon id="Path" fill="#454B69" fill-rule="nonzero" points="16 139 28.0384288 113 76.530352 116.837978 81 139"></polygon>
                    <polygon id="Path" fill="#31364F" fill-rule="nonzero" points="16 141.052097 16 139 81 139 81 142"></polygon>
                    <path d="M34.4834957,135.413368 L63.5881339,136 C63.7189442,136.002862 63.8430544,135.942762 63.9209262,135.838741 C63.998798,135.734721 64.0207191,135.599753 63.9797059,135.476835 L59.4423379,123.369862 L39.8394039,123 L34.0410415,134.743676 C33.9751462,134.891422 33.989272,135.062116 34.0785805,135.197291 C34.167889,135.332467 34.320257,135.413776 34.4834957,135.413368 Z" id="Path" fill="#DFE6F5" fill-rule="nonzero"></path>
                    <path d="M34.4834957,135.413368 L63.5881339,136 C63.7189442,136.002862 63.8430544,135.942762 63.9209262,135.838741 C63.998798,135.734721 64.0207191,135.599753 63.9797059,135.476835 L59.4423379,123.369862 L39.8394039,123 L34.0410415,134.743676 C33.9751462,134.891422 33.989272,135.062116 34.0785805,135.197291 C34.167889,135.332467 34.320257,135.413776 34.4834957,135.413368 Z" id="Path" fill="#000000" fill-rule="nonzero" opacity="0.15"></path>
                    <path d="M34,135.387721 L64,136 L59.921607,124.032128 C59.7866981,123.634698 59.4076498,123.36299 58.9759254,123.354247 L39.6966596,123 L34,135.387721 Z" id="Path" fill="#DFE6F5" fill-rule="nonzero"></path>
                    <path d="M37.0824597,132.099757 L40.5678617,124.535236 C40.7191864,124.209386 41.0490591,124.000328 41.4124098,124 L50.0744978,124 C50.5856385,124 51,124.408729 51,124.912922 L51,133.086058 C50.9996844,133.336045 50.8957002,133.575021 50.7122102,133.747456 C50.5287201,133.919892 50.2817005,134.010772 50.0285509,133.99898 L37.878873,133.388207 C37.5730731,133.37299 37.2946955,133.209569 37.1352991,132.951695 C36.9759027,132.693821 36.9561208,132.374874 37.0824597,132.099757 L37.0824597,132.099757 Z" id="Path" fill="#4C4C56" fill-rule="nonzero"></path>
                    <path d="M54.0003733,131.275229 L54.15544,126.688073 C54.1640939,126.306368 54.4736322,126.001144 54.8532405,126 L57.5213012,126 C57.8595971,126.001724 58.1479347,126.247261 58.2054193,126.582569 L58.9898748,131.144495 C59.0246714,131.348089 58.9688215,131.55678 58.8371171,131.715298 C58.7054126,131.873815 58.5111414,131.966166 58.3057567,131.96789 L54.6958933,132 C54.5072015,131.999481 54.326762,131.922126 54.1957201,131.785573 C54.0646783,131.64902 53.9942061,131.464911 54.0003733,131.275229 Z" id="Path" fill="#D1D9EC" fill-rule="nonzero"></path>
                    <path d="M20.0654025,102.823086 L29.9497898,102.005752 C30.2464683,101.966966 30.5332945,102.127218 30.6534166,102.398872 L40,123.367486 L34.7833023,134.974516 C34.9468843,134.610269 35.0678902,137.444286 33.8869625,134.987842 L19.0323709,104.27341 C18.8329353,103.862522 19.6015467,102.880833 20.0654025,102.823086 Z" id="Path" fill="#4C4C56" fill-rule="nonzero"></path>
                    <path d="M20.0654025,102.823086 L29.9497898,102.005752 C30.2464683,101.966966 30.5332945,102.127218 30.6534166,102.398872 L40,123.367486 L34.7833023,134.974516 C34.9468843,134.610269 35.0678902,137.444286 33.8869625,134.987842 L19.0323709,104.27341 C18.8329353,103.862522 19.6015467,102.880833 20.0654025,102.823086 Z" id="Path" fill="#000000" fill-rule="nonzero" opacity="0.15"></path>
                    <path d="M19.5973055,102.322557 L29.9653012,101.005761 C30.2614558,100.966917 30.5477755,101.127407 30.6676854,101.399465 L40,122.399243 L34.3540839,135 L19.067162,103.276789 C18.9721017,103.081711 18.9782598,102.852873 19.0836758,102.663129 C19.1890918,102.473386 19.3806279,102.346384 19.5973055,102.322557 L19.5973055,102.322557 Z" id="Path" fill="#4C4C56" fill-rule="nonzero"></path>
                    <path d="M22.583745,104.176815 L30.2174158,103.008277 C30.5316856,102.95948 30.8386485,103.130258 30.9577748,103.420175 L38.9536521,122.640617 C39.0199016,122.799341 39.0149386,122.978164 38.9399839,123.133104 L35.2791934,130.650253 C35.1776817,130.863644 34.9596443,131 34.7199376,131 C34.4802309,131 34.2621935,130.863644 34.1606818,130.650253 L22.0666327,105.13045 C21.973205,104.938065 21.978271,104.713518 22.0802836,104.525391 C22.1822961,104.337264 22.3691387,104.207902 22.583745,104.176815 Z" id="Path" fill="#00ABE6" fill-rule="nonzero"></path>
                    <g id="Group"></g>
                    <path d="M55,131 L53.2694243,130.968068 C52.5794415,128.722193 53.3795518,127.485365 53.833547,127 C54.0942571,127.065993 54.2538297,127.102182 54.2538297,127.102182 L55,131 Z" id="Path" fill="#000000" fill-rule="nonzero" opacity="0.1"></path>
                    <polygon id="Path" fill="#67647E" fill-rule="nonzero" points="62.9933305 150.963384 63.0955959 150.963384 62.9044041 151.036616"></polygon>
                    <polygon id="Path" fill="#000000" fill-rule="nonzero" opacity="0.1" points="62.9933305 150.963384 63.0955959 150.963384 62.9044041 151.036616"></polygon>
                    <polygon id="Path" fill="#67647E" fill-rule="nonzero" points="62.9933305 150.963384 63.0955959 150.963384 62.9044041 151.036616"></polygon>
                    <path d="M70.0111158,150.963384 C70.0111158,150.987795 69.9933305,151.012205 69.986661,151.036616 L69.986661,151.036616 C69.986661,151.012205 70.0022232,150.987795 70.013339,150.963384 L70.0111158,150.963384 Z" id="Path" fill="#67647E" fill-rule="nonzero"></path>
                    <polygon id="Path" fill="#67647E" fill-rule="nonzero" points="79.0944844 151.036616 78.9299704 151.036616 78.9055156 150.963384 79.0700296 150.963384"></polygon>
                    <polygon id="Path" fill="#000000" fill-rule="nonzero" opacity="0.1" points="79.0700296 150.963384 79.0944844 151.036616 78.9299704 151.036616 78.9055156 150.963384"></polygon>
                    <g id="Group" opacity="0.1"></g>
                    <path d="M74.1438356,126.554963 C74.2581476,127.162631 74.5676944,127.685086 75,128 C74.7003425,127.538954 74.6027397,126.932764 74.3424658,126.426894 C74.2585616,126.264674 74.1609589,126.032017 74,126 C74.0405359,126.187845 74.0885404,126.373061 74.1438356,126.554963 L74.1438356,126.554963 Z" id="Path" fill="#000000" fill-rule="nonzero" opacity="0.1"></path>
                    <g id="Group" opacity="0.1" transform="translate(63.000000, 93.000000)" fill="#000000" fill-rule="nonzero">
                        <path d="M0.395,0.121666667 C0.243188214,0.359995445 0.16776496,0.603025929 0.17,0.846666667 C0.232271175,0.77011047 0.277395337,0.692118091 0.305,0.613333333 C0.365,0.453333333 0.36,0.285 0.395,0.121666667 Z" id="Path"></path>
                    </g>
                    <polygon id="Path" fill="#31364F" fill-rule="nonzero" points="167 153 166 152.804334 166 132 166.204368 132.08794 166.828393 132.358354 166.828393 133.050879 166.828393 133.571922 166.828393 134.361181 166.836193 135.264761 166.850234 137.124686 166.850234 137.311558 166.850234 137.559987 166.850234 138.087626 166.850234 138.406407 166.850234 139.178078 166.850234 139.661746 166.925117 149.029523 166.925117 149.280151 166.951638 152.577889 166.951638 152.628455"></polygon>
                    <polygon id="Path" fill="#454B69" fill-rule="nonzero" points="167.986425 153 167.178733 152.888783 167.178733 152.508421 167.178733 152.457261 167.140271 149.12075 167.140271 148.867175 167.031674 139.38926 167.031674 138.899905 167.031674 138.119161 167.031674 137.796632 167.031674 137.26279 167.031674 137.011439 167.031674 136.822371 167.011312 134.940578 167 134.026374 167 133.227836 167 132.700667 167 132 167.871041 132 167.871041 132.774071 167.871041 133.303464 167.871041 133.912933 167.871041 134.720369 167.88914 136.753416 167.88914 137.198284 167.88914 137.663171 167.88914 137.987925 167.88914 138.386082 167.88914 138.904353 167.88914 138.904353 167.972851 148.851605 167.972851 149.107404 168 152.414998 168 152.468383"></polygon>
                    <g id="Group"></g>
                    <path d="M255,129 L255,147.127789 C254.679054,147.423704 254.350225,147.714441 254.013514,148 L254,132.908305 L254,131.305922 L255,129 Z" id="Path" fill="#282D49" fill-rule="nonzero"></path>
                    <path d="M256,129 L256,146.311452 C255.673077,146.548208 255.338942,146.776276 255,147 L255,129.256305 L256,129 Z" id="Path" fill="#454B69" fill-rule="nonzero"></path>
                    <path d="M235,154.678692 C234.343124,154.791037 233.683578,154.903383 233.024032,155 L233,138.393085 L233,137.674073 L234.903872,137 L234.903872,138.523405 L235,154.678692 Z" id="Path" fill="#31364F" fill-rule="nonzero"></path>
                    <path d="M236,137 L236,154.777778 C235.688623,154.853333 235.377246,154.924444 235.065868,155 L235,139.028889 L235,137.522222 L235.093812,137.473333 L235.093812,137.473333 L236,137 Z" id="Path" fill="#454B69" fill-rule="nonzero"></path>
                    <polygon id="Path" fill="#31364F" fill-rule="nonzero" points="142 150 140.226667 149.847693 140 130.902478 140 130.361446 140 130 141.741333 130 141.741333 130.488747 141.741333 131.029779"></polygon>
                    <polygon id="Path" fill="#454B69" fill-rule="nonzero" points="143 150 142.166667 149.88024 142 131.023613 142 130.485821 142 130 142.841667 130 142.841667 130.585245 142.841667 131.123037"></polygon>
                    <polygon id="Path" fill="#000000" fill-rule="nonzero" opacity="0.1" points="235 137.556995 236 137 236 139.61399 235.026258 140"></polygon>
                    <polygon id="Path" fill="#000000" fill-rule="nonzero" opacity="0.1" points="256 129 256 132.285106 255.177403 132.580851 254.001982 133 254 131.46383 255.177403 129.253191"></polygon>
                    <polygon id="Path" fill="#31364F" fill-rule="nonzero" points="256 123 256 132.290954 235.135164 139 235 129.06357"></polygon>
                    <polygon id="Path" fill="#454B69" fill-rule="nonzero" points="140 122.143809 167.114858 117 256 122.803443 235.233922 129"></polygon>
                    <polygon id="Path" fill="#000000" fill-rule="nonzero" opacity="0.1" points="142.989673 130 143 131 141.698795 130.91129 140.007745 130.798387 140 130"></polygon>
                    <polygon id="Path" fill="#000000" fill-rule="nonzero" opacity="0.1" points="168 134 167.167568 133.909091 166 133.786096 166 132 167.154595 132.433155 167.989189 132.433155"></polygon>
                    <polygon id="Path" fill="#282D49" fill-rule="nonzero" points="140 122 140 130.829612 235 139 234.866857 128.851939"></polygon>
                    <polygon id="Path" fill="#31364F" fill-rule="nonzero" points="215 133 203 133 203 128 215 128.970922"></polygon>
                    <polygon id="Path" fill="#31364F" fill-rule="nonzero" opacity="0.1" points="215 133 203 133 203 128 215 128.970922"></polygon>
                    <polygon id="Path" fill="#000000" fill-rule="nonzero" opacity="0.1" points="186 127 186 134.287869 234 138 234 130.239306 215.278546 129.159537 213.418029 130.846249 205.783648 130.307502 203.062194 128.282083"></polygon>
                    <polygon id="Path" fill="#52597D" fill-rule="nonzero" points="186 127 186 134.290143 234 138 234 130.239306 215.278546 129.159537 213.420266 130.848522 205.783648 130.307502 203.062194 128.282083"></polygon>
                    <polygon id="Path" fill="#2E3345" fill-rule="nonzero" points="157.103202 125 168 125.724873 167.873368 129 160.758362 129 156 127.231472"></polygon>
                    <polygon id="Path" fill="#31364F" fill-rule="nonzero" opacity="0.1" points="157.103202 125 168 125.724873 167.873368 129 160.758362 129 156 127.231472"></polygon>
                    <polygon id="Path" fill="#000000" fill-rule="nonzero" opacity="0.1" points="142 124 142 130.509946 185 134 185 127.087703 168.416021 126.079566 166.645237 127.422242 159.959538 127.019892 157.206213 125.274864"></polygon>
                    <polygon id="Path" fill="#52597D" fill-rule="nonzero" points="141 123 141 129.509946 184 133 184 126.087703 167.416021 125.081826 165.647445 126.422242 158.959538 126.019892 156.206213 124.274864"></polygon>
                    <polygon id="Path" fill="#000000" fill-rule="nonzero" opacity="0.1" points="234.001758 124 240 124.350294 230.062253 127 225 126.675147"></polygon>
                    <polygon id="Path" fill="#FFFFFF" fill-rule="nonzero" points="234.001758 123 240 123.348564 230.062253 126 225 125.674935"></polygon>
                    <path d="M233,123.84928 C233.23176,123.744978 233.478541,123.938047 233.725322,123.986869 C233.864807,124.015718 234.01073,123.986869 234.154506,124.015718 C234.44206,124.055663 234.725322,124.25317 235,124.153307 L233,123.84928 Z" id="Path" fill="#D3DAE1" fill-rule="nonzero"></path>
                    <path d="M233,123.847729 C233.22986,123.745647 233.476907,123.938715 233.723953,123.987537 C233.865736,124.014167 234.011815,123.987537 234.153598,124.014167 C234.439313,124.054112 234.725027,124.253839 235,124.153975 L233,123.847729 Z" id="Path" fill="#D3DAE1" fill-rule="nonzero"></path>
                    <path d="M232,124.848422 C232.22986,124.74634 232.476907,124.937189 232.723953,124.986011 C232.865736,125.01486 233.009667,124.986011 233.153598,125.01486 C233.441461,125.054806 233.727175,125.254532 234,125.152449 L232,124.848422 Z" id="Path" fill="#D3DAE1" fill-rule="nonzero"></path>
                    <polygon id="Path" fill="#000000" fill-rule="nonzero" opacity="0.1" points="193.285392 120 207 120.881963 204.077732 125 189 123.41954"></polygon>
                    <polygon id="Path" fill="#3A3768" fill-rule="nonzero" points="192.287109 120 206 120.879752 203.078098 125 188 123.41954"></polygon>
                    <polygon id="Path" fill="#D5E1F4" fill-rule="nonzero" points="193.571326 120 205 120.705372 202.565299 124 190 122.734672"></polygon>
                    <g id="Group"></g>
                    <g id="Group" opacity="0.1"></g>
                    <g id="Group"></g>
                    <path d="M184.998998,153.537229 C184.998998,153.598451 184.998998,153.66186 184.987962,153.723082 C184.976926,153.784304 184.987962,153.832407 184.970305,153.88707 C184.923325,154.272402 184.81532,154.647989 184.650268,155 L184.650268,155 C179.099284,154.381219 173.535058,153.637808 167.96421,152.874718 L167.176257,152.765393 L165.761474,152.570794 L164.569612,152.406807 L164.569612,152.406807 C163.26504,152.374345 161.964219,152.253807 160.676199,152.046034 C159.864677,151.927096 159.061249,151.759151 158.270405,151.543138 C154.738964,151.064293 151.187659,150.602941 147.647389,150.183132 L147.186095,150.12847 C147.269967,149.756764 147.340595,149.531554 147.340595,149.531554 C147.340595,149.531554 148.099855,146.575401 148.7311,143.271594 C148.870151,142.554421 149.00258,141.824129 149.117352,141.100396 C149.210052,140.520973 149.293924,139.948109 149.364552,139.39711 C149.404281,139.093186 149.437388,138.795821 149.466081,138.505016 C149.481531,138.360707 149.494774,138.216398 149.50581,138.067716 C149.516846,137.919033 149.530089,137.757232 149.541125,137.606363 C149.55216,137.455495 149.556575,137.322118 149.563196,137.184368 L149.563196,136.978837 C149.563196,136.683659 149.563196,136.375362 149.55216,136.058319 C149.44045,134.479174 149.189347,132.912754 148.801729,131.377014 C148.739929,131.114634 148.675922,130.852254 148.609707,130.596433 C148.589843,130.513345 148.567771,130.432445 148.5457,130.351544 C147.83279,127.616228 147.000694,125.381621 147.000694,125.381621 C147,125.369248 147,125.356824 147.000694,125.344451 C147.001626,125.335729 147.001626,125.326934 147.000694,125.318213 C147.001669,125.300005 147.001669,125.281758 147.000694,125.26355 C147.000694,125.193582 147.000694,125.086443 147.000694,124.95744 C147.000694,124.931202 147.000694,124.902777 147.000694,124.874353 C147.016833,124.64496 147.056772,124.417824 147.11988,124.196536 C147.143908,124.117939 147.1719,124.040585 147.203752,123.964767 C147.363725,123.51824 147.735072,123.178162 148.19697,123.055181 L148.19697,123.055181 C148.821593,122.895567 149.766254,123.055181 151.192073,123.892612 C151.42428,124.025459 151.645668,124.176056 151.854218,124.343032 C151.960161,124.426119 152.074933,124.513579 152.163219,124.607599 C153.796511,126.1141 154.666128,128.600155 155.12963,130.869746 C155.147287,130.950646 155.162737,131.031547 155.178187,131.112447 C155.233366,131.39232 155.279716,131.665633 155.321652,131.934573 C155.396695,132.406858 155.456288,132.86165 155.500431,133.283646 C155.500431,133.397344 155.52471,133.502296 155.535745,133.618181 C155.546781,133.734065 155.557817,133.836831 155.564438,133.941783 C155.593131,134.282878 155.612996,134.597734 155.626238,134.864488 C155.66376,135.572915 155.657139,136.008029 155.657139,136.008029 L155.657139,136.029894 C155.657139,136.029894 155.657139,136.062692 155.646103,136.123914 C155.64485,136.129678 155.64485,136.135641 155.646103,136.141406 C155.646103,136.167644 155.646103,136.200442 155.646103,136.237612 C155.646103,136.274783 155.646103,136.301021 155.646103,136.338191 C155.637274,136.430024 155.626238,136.537163 155.612996,136.659607 C155.593131,136.847647 155.57106,137.068483 155.544574,137.315558 C155.526917,137.499225 155.504845,137.698197 155.482774,137.908101 C155.434216,138.345402 155.381245,138.85267 155.323859,139.386177 C155.310616,139.486757 155.29958,139.587336 155.288544,139.687915 C155.23778,140.144894 155.184808,140.621552 155.12963,141.102583 L155.12963,141.102583 C155.070037,141.649209 155.003822,142.195835 154.939815,142.735901 C154.924365,142.853972 154.908915,142.972043 154.895672,143.087928 C154.732343,144.39983 154.569013,145.591475 154.436584,146.332699 C154.415797,146.442607 154.401061,146.553554 154.392441,146.665048 C154.39031,146.702918 154.39031,146.740876 154.392441,146.778746 C154.385796,146.877758 154.385796,146.977099 154.392441,147.076111 C154.500592,148.943385 156.537792,149.262614 156.537792,149.262614 L165.787959,149.081135 L167.160807,149.054897 L167.959796,149.039591 L175.170556,148.897468 L175.170556,148.897468 L175.832701,148.884349 L179.419321,148.814381 C179.662767,148.808718 179.905786,148.837431 180.141059,148.899655 C181.248468,149.194372 182.304954,149.652077 183.275213,150.257474 C183.578296,150.450219 183.851208,150.685954 184.085237,150.957155 C184.096684,150.967771 184.107035,150.97949 184.116137,150.992139 C184.605358,151.573049 184.907505,152.285937 184.983548,153.038706 C184.983548,153.088996 184.983548,153.139285 184.983548,153.189575 C185.001205,153.294527 185.001205,153.412598 184.998998,153.537229 Z" id="Path" fill="#3A3768" fill-rule="nonzero"></path>
                    <g id="Group" opacity="0.1"></g>
                    <path d="M184.97794,153.538077 C184.97794,153.599264 184.97794,153.662635 184.96691,153.723822 C184.955881,153.785009 184.96691,153.833084 184.949263,153.887715 C184.896681,154.272983 184.7851,154.648055 184.618368,155 C179.070359,154.381578 173.509114,153.638598 167.941252,152.87595 L167.153721,152.766689 L165.739696,152.572203 L164.548473,152.40831 L164.548473,152.40831 C163.2446,152.375867 161.944476,152.255399 160.657146,152.047746 C159.846059,151.928878 159.043062,151.76103 158.252641,151.545142 C154.723093,151.066575 151.173691,150.60549 147.635319,150.185925 L147.174271,150.131294 L147.174271,150.131294 C147.258098,149.746692 147.333101,149.512872 147.333101,149.512872 C147.333101,149.512872 147.952978,147.109112 148.541971,144.196192 L148.541971,144.196192 C148.583885,143.995151 148.623592,143.794109 148.6633,143.590882 L148.722861,143.282764 C148.859631,142.568191 148.991989,141.833952 149.108905,141.112824 C149.201556,140.533737 149.285383,139.961205 149.355974,139.410525 C149.395681,139.106777 149.42877,138.809585 149.457448,138.518949 C149.47289,138.374723 149.486126,138.230498 149.497155,138.081902 C149.508185,137.933306 149.521421,137.771598 149.532451,137.620817 C149.543481,137.470035 149.547893,137.336736 149.554511,137.199066 L149.554511,136.993654 C149.554511,136.698647 149.554511,136.390529 149.543481,136.07367 C149.435135,134.495508 149.186365,132.929901 148.80007,131.395079 C148.738303,131.129937 148.67433,130.869894 148.60815,130.61495 C148.586091,130.531911 148.566237,130.451057 148.544177,130.370203 C147.829444,127.627732 147,125.381309 147,125.381309 C147.000565,125.376225 147.000565,125.371096 147,125.366012 C147.000931,125.357296 147.000931,125.348506 147,125.339789 C147.000974,125.321592 147.000974,125.303356 147,125.285159 C147,125.215231 147,125.108154 147,124.979226 C147,124.953003 147,124.924595 147,124.896187 C147.014014,124.667161 147.051713,124.440165 147.112504,124.218763 C147.13677,124.14228 147.163242,124.063612 147.194125,123.987128 C147.355532,123.51566 147.750654,123.159759 148.239754,123.045291 C148.864043,122.901066 149.797167,123.080255 151.191339,123.888793 C151.433029,124.029441 151.663161,124.188727 151.879601,124.365174 L151.879601,124.365174 C151.983281,124.450398 152.08255,124.535623 152.179612,124.627402 C153.798793,126.141771 154.661326,128.622014 155.120167,130.883734 C155.137815,130.964587 155.153257,131.047626 155.168698,131.12848 C155.223848,131.406005 155.270173,131.681345 155.312086,131.947944 C155.387089,132.419955 155.444444,132.872299 155.488564,133.291864 C155.499594,133.407681 155.512829,133.521314 155.521653,133.630575 C155.530477,133.739837 155.543713,133.849099 155.550331,133.95399 C155.579008,134.294887 155.598862,134.609561 155.612098,134.87616 C155.649599,135.584177 155.642982,136.019039 155.642982,136.019039 L155.642982,136.093337 C155.642982,136.106448 155.642982,136.119559 155.642982,136.134856 C155.641729,136.140617 155.641729,136.146577 155.642982,136.152338 C155.642982,136.178561 155.642982,136.211339 155.642982,136.248488 C155.642982,136.285637 155.642982,136.31186 155.642982,136.349009 C155.634158,136.440789 155.623128,136.547866 155.609892,136.670239 C155.590038,136.858169 155.567979,137.078878 155.541507,137.32581 C155.519447,137.507184 155.499594,137.706041 155.477534,137.918009 C155.429003,138.355056 155.376059,138.862031 155.318704,139.395229 C155.305468,139.495749 155.294439,139.59627 155.283409,139.696791 C155.232672,140.153505 155.177522,140.634257 155.124579,141.115009 L155.124579,141.115009 C155.060606,141.661318 154.996633,142.207627 154.930454,142.745196 C154.915012,142.863198 154.901776,142.981201 154.886335,143.097019 C154.725299,144.40816 154.564263,145.581632 154.431905,146.318057 C154.410135,146.435824 154.395403,146.554762 154.387786,146.67425 C154.385655,146.712098 154.385655,146.750034 154.387786,146.787882 C154.381144,146.886837 154.381144,146.98612 154.387786,147.085075 C154.513526,148.929414 156.531987,149.237532 156.531987,149.237532 L165.777197,149.058343 L167.147103,149.029935 L167.947869,149.014638 L175.168002,148.874783 L175.843028,148.861672 L179.41449,148.791744 C179.657904,148.783934 179.901109,148.812667 180.135841,148.876968 C181.250972,149.163266 182.315471,149.616456 183.292581,150.220888 C183.600742,150.416103 183.877398,150.656269 184.113201,150.933275 C184.124642,150.943886 184.134987,150.955598 184.144085,150.968239 C184.63271,151.551337 184.93117,152.267615 185,153.022361 C185,153.072622 185,153.122882 185,153.173143 C184.980146,153.295516 184.980146,153.413519 184.97794,153.538077 Z" id="Path" fill="#000000" fill-rule="nonzero" opacity="0.1"></path>
                    <g id="Group"></g>
                    <path d="M185.492037,156 L185.127949,155.957561 L185.127949,155.957561 C179.578363,155.325448 174.015537,154.566018 168.446091,153.786485 L167.658337,153.674804 L166.24391,153.476012 L165.052348,153.308491 L165.052348,153.308491 C163.748104,153.27533 162.447611,153.152195 161.159915,152.939944 C160.348598,152.818444 159.545372,152.64688 158.754727,152.426212 C155.224175,151.93705 151.673764,151.465757 148.134385,151.036902 C148.191877,150.72349 148.265531,150.413337 148.355045,150.107717 C148.355045,150.107717 150.45131,141.751754 150.581499,137.309089 C150.627838,135.720987 150.316708,133.755404 149.895248,131.881399 L149.895248,131.881399 C149.833463,131.611131 149.771679,131.343097 149.705481,131.07953 L149.645903,130.829365 C148.897867,127.892158 148.008609,125.435179 148.008609,125.435179 C147.987762,125.131197 148.004813,124.825766 148.059361,124.526097 C148.073038,124.445581 148.090713,124.365815 148.112319,124.2871 C148.196934,123.912785 148.396177,123.575083 148.681621,123.322177 L148.681621,123.322177 C148.694653,123.310516 148.708683,123.300052 148.723546,123.290906 C149.303881,122.844183 150.345393,122.812912 152.198933,123.911852 C152.574424,124.136155 152.921886,124.405379 153.233826,124.713721 C153.32209,124.798598 153.410354,124.887943 153.494204,124.979521 C154.983656,126.612295 155.773617,129.113947 156.188457,131.352032 L156.234795,131.599963 C156.28334,131.879165 156.325266,132.1539 156.364984,132.419701 C156.364984,132.419701 156.364984,132.435336 156.364984,132.442037 L156.364984,132.442037 C156.415736,132.794949 156.457661,133.132225 156.492967,133.453866 C156.492967,133.453866 156.492967,133.453866 156.492967,133.453866 C156.596269,134.401083 156.649304,135.353227 156.651842,136.306195 C156.651842,136.306195 156.565784,137.188474 156.431182,138.459402 C156.38043,138.957499 156.320852,139.515903 156.256861,140.105578 C156.256861,140.134615 156.256861,140.163652 156.256861,140.194923 L156.223762,140.507629 C156.111226,141.537327 155.987657,142.636267 155.861881,143.654796 C155.848641,143.779879 155.833195,143.902728 155.817749,144.023343 C155.676527,145.169189 155.535305,146.187719 155.418355,146.851103 C154.959383,149.437632 157.51462,149.835216 157.51462,149.835216 L166.239496,149.660994 L167.607585,149.63419 L168.408579,149.616321 L168.743982,149.616321 L168.852105,149.616321 L175.771986,149.477837 L176.433965,149.477837 L180.405836,149.397427 C180.649384,149.391174 180.892514,149.421279 181.127392,149.486772 C182.243201,149.779321 183.308635,150.241743 184.287236,150.858213 C184.561518,151.037486 184.811504,151.252239 185.030859,151.497027 C185.044529,151.510873 185.057073,151.525812 185.068371,151.5417 C186.131497,152.785537 186.301436,154.573834 185.492037,156 L185.492037,156 Z" id="Path" fill="#3A3768" fill-rule="nonzero"></path>
                    <polygon id="Path" fill="#4C4C56" fill-rule="nonzero" points="217.015253 115 220 121 219.499695 121 216 115.070992"></polygon>
                    <polygon id="Path" fill="#000000" fill-rule="nonzero" opacity="0.1" points="217.015253 115 220 121 219.499695 121 216 115.070992"></polygon>
                    <polygon id="Path" fill="#4C4C56" fill-rule="nonzero" points="217 121 220 121 220 121.898361 217 122"></polygon>
                    <polygon id="Path" fill="#000000" fill-rule="nonzero" opacity="0.1" points="217 121 220 121 220 121.898361 217 122"></polygon>
                    <path d="M196,94.4863425 L196,114.513658 C196,115.334542 196.677419,116 197.513058,116 L231.495576,116 C231.89957,116 232.286612,115.840499 232.569541,115.557213 C232.852471,115.273926 233.007501,114.890744 233,114.493956 L232.614214,94.4491292 C232.59843,93.6442153 231.929603,93 231.11007,93 L197.513058,93 C197.11177,93 196.726918,93.1565964 196.443164,93.4353396 C196.159411,93.7140829 196,94.0921399 196,94.4863425 L196,94.4863425 Z" id="Path" fill="#4C4C56" fill-rule="nonzero"></path>
                    <path d="M196,94.4863425 L196,114.513658 C196,115.334542 196.677419,116 197.513058,116 L231.495576,116 C231.89957,116 232.286612,115.840499 232.569541,115.557213 C232.852471,115.273926 233.007501,114.890744 233,114.493956 L232.614214,94.4491292 C232.59843,93.6442153 231.929603,93 231.11007,93 L197.513058,93 C197.11177,93 196.726918,93.1565964 196.443164,93.4353396 C196.159411,93.7140829 196,94.0921399 196,94.4863425 L196,94.4863425 Z" id="Path" fill="#000000" fill-rule="nonzero" opacity="0.1"></path>
                    <path d="M194,94.4863666 L194,114.513659 C194,115.334543 194.677459,116 195.513147,116 L229.497671,116 C229.901492,116 230.288338,115.840443 230.570933,115.557088 C230.853528,115.273734 231.008064,114.89054 231,114.493958 L230.614146,94.4491534 C230.598379,93.6450912 229.930856,93.0010681 229.112142,93 L195.522061,93 C195.119207,92.9976946 194.732038,93.153261 194.446337,93.4322571 C194.160636,93.7112531 194,94.0906427 194,94.4863666 L194,94.4863666 Z" id="Path" fill="#4C4C56" fill-rule="nonzero"></path>
                    <path d="M196,95.5148199 L196,113.48518 C196,114.321792 196.667913,115 197.491826,115 L228.516963,115 C229.336022,115 230,114.325787 230,113.494104 L230,95.5036651 C229.998788,94.6728531 229.335164,94 228.516963,94 L197.491826,94 C197.096169,94 196.716717,94.1595966 196.436946,94.4436805 C196.157174,94.7277643 196,95.1130647 196,95.5148199 L196,95.5148199 Z" id="Path" fill="#00ABE6" fill-rule="nonzero"></path>
                    <polygon id="Path" fill="#4C4C56" fill-rule="nonzero" points="209 114.881218 212.067948 121 219 121 215.533974 114"></polygon>
                    <polygon id="Path" fill="#4C4C56" fill-rule="nonzero" points="207.482239 121 207 122 217 122 217 121"></polygon>
                    <path d="M186,149 C186,149 185.358692,149.922728 185.04897,149.996366 C184.739247,150.070004 186,149 186,149 Z" id="Path" fill="#000000" fill-rule="nonzero" opacity="0.1"></path>
                    <path d="M185,149 C185,149 184.465517,150.103364 184,149.99212 L185,149 Z" id="Path" fill="#000000" fill-rule="nonzero" opacity="0.1"></path>
                    <path d="M161,127 C161,127 159.903054,127.790224 159,128 L161,127 Z" id="Path" fill="#000000" fill-rule="nonzero" opacity="0.1"></path>
                    <path d="M158,130 C158,130 160.658731,129.875451 160.978201,129.182015 C161.297671,128.488579 158,130 158,130 Z" id="Path" fill="#000000" fill-rule="nonzero" opacity="0.1"></path>
                    <path d="M157,133 C157.138322,133 159.888889,132.481707 160,132 L157,133 Z" id="Path" fill="#000000" fill-rule="nonzero" opacity="0.1"></path>
                    <path d="M156,135 C157.113849,134.973251 159,134 159,134 L156,135 Z" id="Path" fill="#000000" fill-rule="nonzero" opacity="0.1"></path>
                    <path d="M163,135 C163,135 168.728757,135 168.991923,134.21875 C169.255089,133.4375 163,135 163,135 Z" id="Path" fill="#000000" fill-rule="nonzero" opacity="0.1"></path>
                </g>
            </g>
        </g>
    </g>
</svg>