<?xml version="1.0" standalone="no"?>
<!DOCTYPE svg PUBLIC "-//W3C//DTD SVG 1.1//EN" "http://www.w3.org/Graphics/SVG/1.1/DTD/svg11.dtd" >
<svg xmlns="http://www.w3.org/2000/svg">
<metadata>Generated by IcoMoon</metadata>
<defs>
<font id="icomoon" horiz-adv-x="1024">
<font-face units-per-em="1024" ascent="960" descent="-64" />
<missing-glyph horiz-adv-x="1024" />
<glyph unicode="&#x20;" horiz-adv-x="512" d="" />
<glyph unicode="&#xe900;" glyph-name="eye-on" horiz-adv-x="1707" d="M1024 447.956c0-97.891-76.373-177.178-170.667-177.178s-170.667 79.287-170.667 177.178c0 97.891 76.373 177.178 170.667 177.178s170.667-79.287 170.667-177.178zM853.333 113.178c-255.061 0-495.36 125.974-648.619 334.778 153.259 208.804 393.557 334.866 648.619 334.866s495.36-126.062 648.619-334.866c-153.259-208.804-393.557-334.778-648.619-334.778zM853.333 960c-364.885 0-682.752-206.235-853.333-512.044 170.581-305.809 488.448-511.956 853.333-511.956s682.752 206.147 853.333 511.956c-170.581 305.809-488.448 512.044-853.333 512.044z" />
<glyph unicode="&#xe901;" glyph-name="home" d="M819.2 38.4h-153.6v204.8h-307.2v-204.8h-153.6v470.374l306.688 306.688 307.712-307.661v-469.402zM921.6 550.195v0.205l-409.498 409.6-512.102-511.59 72.243-72.397 30.157 30.362v-470.374h358.4v204.8h102.4v-204.8l358.4 0.154v469.248l29.952-29.901 72.499 72.397-102.451 102.298z" />
<glyph unicode="&#xe902;" glyph-name="notification-bell" horiz-adv-x="819" d="M614.4 243.2h-409.6v307.2c0 136.499 102.4 204.8 204.749 204.8h0.102c102.349 0 204.749-68.301 204.749-204.8v-307.2zM460.8 89.6c0-28.262-22.938-51.2-51.2-51.2s-51.2 22.938-51.2 51.2v51.2h102.4v-51.2zM768 243.2c-28.262 0-51.2 22.938-51.2 51.2v256c0 181.914-121.242 282.88-256 303.155v55.245c0 28.262-22.938 51.2-51.2 51.2s-51.2-22.938-51.2-51.2v-55.245c-134.758-20.275-256-121.242-256-303.155v-256c0-28.262-22.938-51.2-51.2-51.2s-51.2-22.938-51.2-51.2c0-28.262 22.938-51.2 51.2-51.2h204.8v-51.2c0-84.838 68.762-153.6 153.6-153.6s153.6 68.762 153.6 153.6v51.2h204.8c28.262 0 51.2 22.938 51.2 51.2s-22.938 51.2-51.2 51.2v0z" />
<glyph unicode="&#xe903;" glyph-name="caret" d="M647.575 83.055l355.624 584.264c59.505 97.817-15.774 219.538-135.565 219.538h-711.248c-119.947 0-195.070-121.721-135.565-219.538l355.468-584.264c59.973-98.55 211.313-98.55 271.286 0z" />
<glyph unicode="&#xe904;" glyph-name="settings" horiz-adv-x="725" d="M563.2 448c-18.074 0-51.2 3.686-51.2 9.421v-521.421h102.4v521.421c0-5.734-33.126-9.421-51.2-9.421zM614.4 848.179v111.821h-102.4v-111.821c-51.2-21.146-102.4-77.414-102.4-144.179 0-84.838 68.762-153.6 153.6-153.6s153.6 68.762 153.6 153.6c0 66.765-51.2 123.034-102.4 144.179zM204.8 438.579v521.421h-102.4v-521.421c16.077 5.734 33.126 9.421 51.2 9.421s51.2-3.686 51.2-9.421zM307.2 192c0-66.765-51.2-123.034-102.4-144.179v-111.821h-102.4v111.821c-51.2 21.146-102.4 77.414-102.4 144.179 0 84.838 68.762 153.6 153.6 153.6s153.6-68.762 153.6-153.6z" />
<glyph unicode="&#xe905;" glyph-name="search" d="M1008.635 23.629c20.487-20.018 20.487-52.56 0-72.577v0c-20.487-20.069-53.654-20.069-74.089 0l-213.411 202.744 74.089 72.577 213.411-202.744zM419.173 241.413c-173.328 0-314.38 138.123-314.38 307.966 0 169.792 141.052 307.966 314.38 307.966s314.38-138.174 314.38-307.966c0-169.843-141.052-307.966-314.38-307.966v0zM419.173 960c-231.488 0-419.173-183.856-419.173-410.621 0-226.817 187.685-410.621 419.173-410.621s419.173 183.804 419.173 410.621c0 226.766-187.685 410.621-419.173 410.621v0z" />
<glyph unicode="&#xe906;" glyph-name="cross-circle" d="M512 960c282.77 0 512-229.23 512-512s-229.23-512-512-512c-282.77 0-512 229.23-512 512s229.23 512 512 512zM270.641 689.359c-23.802-23.802-23.802-62.398 0-86.2l146.539-146.539c4.76-4.76 4.76-12.48 0-17.24l-146.539-146.539c-23.802-23.802-23.802-62.398 0-86.2s62.398-23.802 86.2 0l146.539 146.539c4.76 4.76 12.48 4.76 17.24 0l146.539-146.539c23.802-23.802 62.398-23.802 86.2 0s23.802 62.398 0 86.2l-146.539 146.539c-4.76 4.76-4.76 12.48 0 17.24l146.539 146.539c23.802 23.802 23.802 62.398 0 86.2s-62.398 23.802-86.2 0l-146.539-146.539c-4.76-4.76-12.48-4.76-17.24 0l-146.539 146.539c-23.802 23.802-62.398 23.802-86.2 0z" />
<glyph unicode="&#xe907;" glyph-name="check" d="M511.999 960c69.084 0 136.143-13.546 199.316-40.267 60.978-25.791 115.724-62.697 162.724-109.695 46.994-46.998 83.904-101.744 109.693-162.723 26.719-63.17 40.268-130.229 40.268-199.317 0-69.083-13.55-136.144-40.268-199.315-25.789-60.979-62.697-115.725-109.693-162.725-46.999-46.994-101.747-83.901-162.724-109.693-63.171-26.719-130.232-40.265-199.316-40.265-69.086 0-136.145 13.546-199.316 40.265-60.978 25.792-115.724 62.697-162.722 109.693-46.996 47-83.904 101.746-109.695 162.725-26.719 63.172-40.267 130.231-40.267 199.315 0 69.088 13.548 136.147 40.265 199.319 25.792 60.977 62.699 115.725 109.696 162.721s101.744 83.904 162.722 109.695c63.171 26.719 130.23 40.267 199.316 40.267zM511.999 885.255c-241.49 0-437.255-195.766-437.255-437.257 0-241.489 195.765-437.254 437.255-437.254s437.253 195.765 437.253 437.254c0 241.491-195.764 437.257-437.253 437.257zM717.8 635.001c14.595 14.596 38.258 14.595 52.853 0s14.595-38.257 0-52.852v0l-319.959-319.959c-7.009-7.009-16.512-10.945-26.426-10.945-9.912 0-19.417 3.934-26.426 10.945v0l-146.124 146.125c-14.595 14.595-14.595 38.257 0 52.852s38.257 14.596 52.851 0v0l119.699-119.701z" />
<glyph unicode="&#xe908;" glyph-name="alert" d="M460.8 370.586v0c0-28.262 22.938-51.2 51.2-51.2s51.2 22.938 51.2 51.2v358.4c0 28.262-22.938 51.2-51.2 51.2s-51.2-22.938-51.2-51.2v-358.4zM563.2 216.986v0c0 28.262-22.938 51.2-51.2 51.2s-51.2-22.938-51.2-51.2c0-28.262 22.938-51.2 51.2-51.2s51.2 22.938 51.2 51.2zM102.4 38.4v819.2h819.2v-819.2h-819.2zM0-64h1024v1024h-1024v-1024z" />
<glyph unicode="&#xe909;" glyph-name="eye_off" horiz-adv-x="703" d="M254.252 428.295c0-0.077-0.001-0.168-0.001-0.26 0-22.809 11.496-42.933 29.011-54.893l0.229-0.148 63.563 113.46c-8.348 4.993-18.415 7.945-29.172 7.945-0.024 0-0.047 0-0.071 0h0.004c-0.015 0-0.033 0-0.051 0-35.105 0-63.563-28.458-63.563-63.563 0-0.894 0.018-1.784 0.055-2.669l-0.004 0.127zM249.485 311.975c-71.64 17.957-131.671 59.387-172.935 115.477l-0.592 0.843c54.95 75.374 142.631 124.028 241.719 124.9l0.138 0.001c22.603-0.141 44.514-2.797 65.56-7.702l-1.997 0.392 33.371 59.749c-28.396 8.473-61.024 13.349-94.791 13.349-0.195 0-0.389 0-0.584 0h0.031c-136.644-0.86-255.331-76.901-316.865-188.804l-0.95-1.885c46.749-83.697 122.725-146.343 213.811-174.73l2.621-0.704zM500.876 567.181l202.448 361.991-55.618 31.782-555.223-992.854 55.3-31.782 168.76 301.924c136.564 1.15 255.132 77.086 316.863 188.81l0.952 1.879c-32.47 57.308-77.617 103.982-131.846 137.314l-1.636 0.936zM354.999 306.255l113.778 203.719c35.901-21.477 66.013-48.752 89.999-80.869l0.578-0.809c-47.887-65.207-119.961-110.233-202.752-121.857l-1.603-0.184z" />
<glyph unicode="&#xe90a;" glyph-name="close" d="M330.981 448l-271.529 271.529 181.019 181.019 271.529-271.529 271.529 271.529 181.019-181.019-271.529-271.529 271.529-271.529-181.019-181.019-271.529 271.529-271.529-271.529-181.019 181.019z" />
<glyph unicode="&#xe90b;" glyph-name="flag" d="M769.6 742.4h-404.8v-220.8h414.335l-115.115 110.4zM880 742.4l-113.377-110.4 113.377-110.4v-73.6h-588.8v368h588.8zM144 80h73.6v736h-73.6z" />
<glyph unicode="&#xe90c;" glyph-name="detail" horiz-adv-x="1205" d="M361.412 56.471v783.059h-240.941v-783.059h240.941zM1084.235 658.824v180.706h-602.353v-180.706h602.353zM1084.235 357.647v180.706h-602.353v-180.706h602.353zM1084.235 56.471v180.706h-602.353v-180.706h602.353zM1204.706-64h-1204.706v1024h1204.706v-1024z" />
<glyph unicode="&#xe90d;" glyph-name="arrow_forward" d="M213.333 405.333h476.587l-208.213-208.213c-16.64-16.64-16.64-43.947 0-60.587s43.52-16.64 60.16 0l281.173 281.173c16.64 16.64 16.64 43.52 0 60.16l-280.747 281.6c-16.64 16.64-43.52 16.64-60.16 0s-16.64-43.52 0-60.16l207.787-208.64h-476.587c-23.467 0-42.667-19.2-42.667-42.667s19.2-42.667 42.667-42.667z" />
<glyph unicode="&#xe90e;" glyph-name="arrow_back" d="M810.667 490.667h-476.587l208.213 208.213c16.64 16.64 16.64 43.947 0 60.587s-43.52 16.64-60.16 0l-281.173-281.173c-16.64-16.64-16.64-43.52 0-60.16l281.173-281.173c16.64-16.64 43.52-16.64 60.16 0s16.64 43.52 0 60.16l-208.213 208.213h476.587c23.467 0 42.667 19.2 42.667 42.667s-19.2 42.667-42.667 42.667z" />
<glyph unicode="&#xe90f;" glyph-name="arrow_drop_down" d="M371.627 460.373l110.507-110.507c16.64-16.64 43.52-16.64 60.16 0l110.507 110.507c26.88 26.88 7.68 72.96-30.293 72.96h-221.013c-37.973 0-56.747-46.080-29.867-72.96z" />
<glyph unicode="&#xe910;" glyph-name="total-files" horiz-adv-x="1067" d="M1046.101 550.4v-614.4h-1046.101v614.4h1046.101zM941.491 448h-836.881v-409.6h836.881v409.6zM261.525 243.2h523.050v102.4h-523.050zM104.61 652.8h836.881v102.4h-836.881zM209.22 857.6h627.66v102.4h-627.66z" />
<glyph unicode="&#xe911;" glyph-name="Files-done" horiz-adv-x="1109" d="M519.836 471.757c-53.508 52.378-94.411 92.416-147.919 144.794l73.959 72.448 73.959-72.448 147.919 144.845 74.012-72.397-221.93-217.242zM922.951 960v-204.8h52.305l104.61-302.95v-516.25h-1046.101v516.25l104.61 302.95h52.305v204.8h732.271zM347.595 345.6h-209.22v-307.2h836.881v307.2h-209.22v-204.8h-418.44v204.8zM818.341 857.6h-523.050v-409.6h156.915v-204.8h209.22v204.8h156.915v409.6zM922.951 605.85v-157.85h52.305l-52.305 157.85zM190.68 605.85l-52.305-157.85h52.305v157.85z" />
<glyph unicode="&#xe912;" glyph-name="Files-cancel" horiz-adv-x="1109" d="M497.556 499.695l-73.959 72.397 73.959 72.397-73.959 72.448 73.959 72.397 73.959-72.397 73.959 72.397 74.012-72.397-74.012-72.448 74.012-72.397-74.012-72.397-73.959 72.397zM920.495 960v-204.8h52.305l104.61-302.95v-516.25h-1046.101v516.25l104.61 302.95h52.305v204.8h732.271zM345.14 345.6h-209.22v-307.2h836.881v307.2h-209.22v-204.8h-418.44v204.8zM815.885 857.6h-523.050v-409.6h156.915v-204.8h209.22v204.8h156.915v409.6zM920.495 605.85v-157.85h52.305l-52.305 157.85zM188.224 605.85l-52.305-157.85h52.305v157.85z" />
<glyph unicode="&#xe913;" glyph-name="clock" horiz-adv-x="1109" d="M551.904 960c288.881 0 523.050-229.222 523.050-512s-234.17-512-523.050-512c-288.881 0-523.050 229.222-523.050 512s234.17 512 523.050 512zM551.904 857.6c-230.718 0-418.44-183.757-418.44-409.6s187.723-409.6 418.44-409.6c230.718 0 418.44 183.757 418.44 409.6s-187.723 409.6-418.44 409.6zM865.734 396.8c0-28.262-23.433-51.2-52.305-51.2h-209.22c-57.797 0-104.61 45.824-104.61 102.4v256c0 28.262 23.433 51.2 52.305 51.2s52.305-22.938 52.305-51.2v-204.8c0-28.16 23.537-51.2 52.305-51.2h156.915c28.872 0 52.305-22.938 52.305-51.2z" />
<glyph unicode="&#xe914;" glyph-name="healthy" d="M512 960c282.77 0 512-229.23 512-512s-229.23-512-512-512c-282.77 0-512 229.23-512 512s229.23 512 512 512z" />
<glyph unicode="&#xe915;" glyph-name="filter" d="M563.661 448l-0.461-204.8h-102.4v204.8l-283.597 409.6h669.645l-283.187-409.6zM460.8 38.4h102.4v102.4h-102.4v-102.4zM0 960l358.4-555.878v-468.122h307.2v468.122l358.4 555.878h-1024z" />
<glyph unicode="&#xe916;" glyph-name="calendar" d="M102.4 38.4v614.4h819.2v-614.4h-819.2zM921.6 857.6v102.4h-102.4v-102.4h-256v102.4h-102.4v-102.4h-256v102.4h-102.4v-102.4h-102.4v-921.6h1024v921.6h-102.4z" />
<glyph unicode="&#xe917;" glyph-name="alert-dot" d="M512 960c282.77 0 512-229.23 512-512s-229.23-512-512-512c-282.77 0-512 229.23-512 512s229.23 512 512 512z" />
<glyph unicode="&#xe918;" glyph-name="not-set" d="M512 960c282.77 0 512-229.23 512-512s-229.23-512-512-512c-282.77 0-512 229.23-512 512s229.23 512 512 512zM512 857.6c-226.216 0-409.6-183.384-409.6-409.6s183.384-409.6 409.6-409.6c226.216 0 409.6 183.384 409.6 409.6s-183.384 409.6-409.6 409.6z" />
<glyph unicode="&#xe919;" glyph-name="waiting" d="M512 960c282.77 0 512-229.23 512-512s-229.23-512-512-512c-282.77 0-512 229.23-512 512s229.23 512 512 512z" />
<glyph unicode="&#xe91a;" glyph-name="refresh" horiz-adv-x="896" d="M396.478-61.13c-205.414 23.010-370.038 187.215-393.466 392.629-30.749 268.586 178.011 497.219 439.695 500.147v120.487c0 6.694 8.367 10.25 14.015 6.066l248.086-182.195c4.184-3.138 4.184-9.204 0-12.342l-248.086-182.195c-5.648-4.184-14.015-0.418-14.015 6.066v120.278c-183.868-2.929-331.131-159.395-318.58-346.401 10.668-160.859 141.823-291.387 302.682-301.636 170.481-10.877 315.442 110.865 341.38 271.933 4.811 29.913 30.959 51.667 61.080 51.667 37.443 0 66.728-33.259 60.871-70.284-36.397-229.47-248.296-401.624-493.663-374.222z" />
<glyph unicode="&#xe91b;" glyph-name="edit" d="M133.603 68.728v178.52l572.756 533.436 122.314-135.449-523.724-576.506h-171.346zM1024 645.102l-313.967 314.898-710.033-656.74v-367.26h362.131l661.869 709.102z" />
<glyph unicode="&#xe91c;" glyph-name="cross" d="M253.575-33.046l-253.575 248.218 253.575 248.218-253.575 248.393 253.575 248.218 253.575-248.218 253.575 248.218 253.754-248.218-253.754-248.393 253.754-248.218-253.754-248.218-253.575 248.218z" />
<glyph unicode="&#xe91d;" glyph-name="loader" d="M512 79.71c39.684 0 71.855-32.17 71.855-71.855s-32.171-71.855-71.855-71.855c-39.684 0-71.855 32.171-71.855 71.855s32.171 71.855 71.855 71.855zM158.438 188.988c32.76 33.11 85.806 32.799 118.528 0 32.76-32.76 32.76-85.767 0-118.527-32.721-32.76-85.806-32.76-118.528 0-32.76 32.76-32.76 85.767 0 118.527zM806.298 189.688c33.074 0 59.886-26.812 59.886-59.886s-26.812-59.886-59.886-59.886c-33.074 0-59.886 26.812-59.886 59.886s26.812 59.886 59.886 59.886zM95.794 519.816c52.905 0 95.794-42.888 95.794-95.794s-42.888-95.794-95.794-95.794c-52.905 0-95.794 42.888-95.794 95.794s42.888 95.794 95.794 95.794zM928.168 471.939c26.442 0 47.877-21.435 47.877-47.877s-21.435-47.877-47.877-47.877c-26.442 0-47.877 21.435-47.877 47.877s21.435 47.877 47.877 47.877zM217.702 826.161c59.537 0 107.802-48.264 107.802-107.802s-48.264-107.802-107.802-107.802c-59.537 0-107.802 48.264-107.802 107.802s48.264 107.802 107.802 107.802zM806.259 754.267c19.831 0 35.908-16.077 35.908-35.908s-16.077-35.908-35.908-35.908c-19.831 0-35.908 16.077-35.908 35.908s16.077 35.908 35.908 35.908zM512 960c66.148 0 119.771-53.623 119.771-119.771s-53.623-119.771-119.771-119.771c-66.148 0-119.771 53.623-119.771 119.771s53.623 119.771 119.771 119.771z" />
<glyph unicode="&#xe91e;" glyph-name="info" d="M511.981 960c282.743 0 512.019-229.249 512.019-511.981 0-282.738-229.281-512.019-512.019-512.019-282.733 0-511.981 229.276-511.981 512.019 0 282.738 229.244 511.981 511.981 511.981zM511.981 885.864c-241.794 0-437.846-196.052-437.846-437.846s196.052-437.883 437.846-437.883c241.794 0 437.883 196.089 437.883 437.883s-196.089 437.846-437.883 437.846zM488.555 535.61c27.097 0 48.003-6.598 62.719-19.646 14.642-13.085 22.018-30.099 22.018-51.005 0-4.337-0.519-11.973-1.52-22.871-1.001-10.935-2.891-20.906-5.634-30.062l-28.060-99.342c-2.298-7.97-4.337-17.088-6.19-27.282-1.816-10.194-2.706-17.978-2.706-23.204 0-13.196 2.928-22.204 8.859-26.985 5.857-4.782 16.125-7.191 30.655-7.191 6.858 0 14.531 1.223 23.204 3.596 8.6 2.372 14.827 4.485 18.756 6.302l-7.525-30.655c-22.537-8.896-40.478-15.643-53.934-20.313-13.419-4.671-29.024-7.006-46.78-7.006-27.282 0-48.522 6.672-63.646 19.98s-22.648 30.173-22.648 50.672c0 7.97 0.556 16.125 1.668 24.428 1.149 8.303 2.965 17.644 5.449 28.135l28.209 99.638c2.484 9.564 4.633 18.645 6.339 27.097 1.705 8.526 2.521 16.347 2.521 23.464 0 12.677-2.632 21.574-7.858 26.578-5.301 5.004-15.272 7.451-30.136 7.451-7.265 0-14.753-1.075-22.426-3.336-7.599-2.335-14.197-4.448-19.609-6.524l7.451 30.692c18.46 7.525 36.141 13.975 53.007 19.312 16.866 5.412 32.805 8.081 47.818 8.081zM550.903 717.465c18.423 0 34.214-6.116 47.262-18.423 13.085-12.269 19.646-27.097 19.646-44.333 0-17.311-6.561-32.064-19.646-44.222s-28.839-18.237-47.262-18.237c-18.386 0-34.251 6.079-47.447 18.237-13.122 12.158-19.757 26.948-19.757 44.222 0 17.237 6.672 32.064 19.757 44.333 13.196 12.307 29.061 18.423 47.447 18.423z" />
<glyph unicode="&#xe91f;" glyph-name="link" d="M949.032 881.268c-100.013 104.976-262.151 104.976-362.135 0l-142.886-149.957c11.311 1.292 22.741 1.847 34.228 1.847 36.16 0 71.323-6.031 104.612-17.659l80.967 84.978c27.809 29.228 64.79 45.288 104.116 45.288 39.33 0 76.312-16.060 104.12-45.288 27.81-29.167 43.102-67.933 43.102-109.283 0-41.289-15.291-80.116-43.102-109.283l-158.417-166.325c-27.807-29.23-64.79-45.286-104.116-45.286-39.386 0-76.308 16.056-104.145 45.286-13.539 14.154-24.087 30.646-31.355 48.614-18.052-1.046-34.93-8.922-47.824-22.458l-42.198-44.363c11.546-22.458 26.374-43.626 44.426-62.644 99.985-104.98 262.151-104.98 362.163 0l158.445 166.386c99.955 104.97 99.955 275.17-0.002 380.147zM547.405 162.889c-36.216 0-71.728 6.153-105.773 18.274l-81.515-85.588c-27.777-29.227-64.753-45.284-104.075-45.284s-76.24 16.057-104.077 45.284c-27.836 29.166-43.131 67.986-43.131 109.273s15.295 80.113 43.131 109.334l158.4 166.307c27.836 29.164 64.755 45.223 104.077 45.223 39.38 0 76.3-16.059 104.103-45.223 13.54-14.212 24.111-30.702 31.412-48.667 18.108 0.984 35.014 8.921 47.907 22.456l42.135 44.299c-11.545 22.521-26.401 43.685-44.479 62.697-99.974 104.967-262.123 104.967-362.097 0l-158.4-166.37c-100.032-104.971-100.032-275.149 0-380.177 99.974-104.971 262.067-104.971 362.039 0l142.634 149.756c-10.635-1.042-21.388-1.601-32.231-1.601l-0.060 0.006z" />
<glyph unicode="&#xe920;" glyph-name="test" d="M1014.265 348.548c12.98 65.666 12.98 133.237 0 198.903l-128.126 28.902c-5.301 15.549-11.571 30.751-18.775 45.516l70.094 110.603c-37.358 55.734-85.251 103.627-140.985 140.985l-111.058-70.094c-14.765 7.203-29.966 13.474-45.516 18.775l-28.447 128.126c-65.666 12.98-133.237 12.98-198.903 0l-28.902-128.013c-15.549-5.301-30.751-11.572-45.516-18.775l-110.603 69.98c-55.734-37.358-103.627-85.251-140.985-140.985l70.094-111.058c-7.204-14.764-13.474-29.966-18.775-45.516l-128.126-28.447c-12.98-65.666-12.98-133.237 0-198.903l128.126-28.902c5.301-15.549 11.572-30.751 18.775-45.516l-70.094-110.603c37.358-55.734 85.251-103.627 140.985-140.985l111.058 70.094c14.765-7.203 29.966-13.474 45.516-18.775l28.902-128.126c65.666-12.98 133.237-12.98 198.903 0l28.902 128.126c15.549 5.301 30.751 11.572 45.516 18.775l110.148-70.094c55.734 37.358 103.627 85.251 140.985 140.985l-70.094 111.058c7.203 14.765 13.474 29.966 18.775 45.516l128.126 28.447zM842.671 368.348l-10.355-30.040c-4.533-13.293-9.892-26.29-16.044-38.916l-13.996-28.561 16.955-27.082 49.498-78.401c-21.78-27.514-46.676-52.41-74.19-74.19l-105.141 66.567-28.561-13.996c-12.626-6.152-25.623-11.511-38.916-16.044l-30.268-10.355-6.941-30.951-20.482-90.462c-34.853-4.057-70.060-4.057-104.913 0l-20.482 90.462-6.486 30.951-30.040 10.355c-13.293 4.533-26.29 9.892-38.916 16.044l-28.561 13.996-27.082-16.955-78.401-49.498c-27.514 21.78-52.41 46.676-74.19 74.19l49.612 78.287 16.955 26.854-13.996 28.561c-6.153 12.625-11.511 25.623-16.044 38.916l-10.355 30.268-30.951 6.941-90.462 20.482c-4.058 34.853-4.058 70.060 0 104.913l90.462 20.482 30.951 6.486 10.355 30.040c4.533 13.293 9.892 26.29 16.044 38.916l13.996 28.561-16.955 27.082-49.498 78.401c21.78 27.514 46.676 52.41 74.19 74.19l105.141-66.567 28.561 13.996c12.626 6.152 25.623 11.511 38.916 16.044l30.268 10.355 6.941 30.951 20.482 90.462c34.853 4.057 70.060 4.057 104.913 0l20.482-90.462 6.486-30.951 30.040-10.355c13.293-4.533 26.29-9.892 38.916-16.044l28.561-13.996 27.082 16.955 78.401 49.498c27.515-21.779 52.411-46.676 74.19-74.19l-49.612-78.287-16.955-26.854 13.996-28.561c6.153-12.625 11.511-25.623 16.044-38.916l10.355-30.268 30.951-6.941 90.462-20.482c4.058-34.853 4.058-70.060 0-104.913l-90.462-20.482-30.951-6.486zM512 675.556c-125.675 0-227.556-101.88-227.556-227.556s101.88-227.556 227.556-227.556c125.675 0 227.556 101.88 227.556 227.556 0 60.351-23.975 118.231-66.649 160.906s-100.555 66.649-160.906 66.649zM512 277.333c-69.028 0-131.259 41.582-157.675 105.355s-11.814 137.181 36.996 185.991c48.81 48.81 122.217 63.412 185.991 36.996s105.355-88.647 105.355-157.675c0-45.264-17.981-88.673-49.987-120.68s-75.416-49.987-120.68-49.987z" />
<glyph unicode="&#xe921;" glyph-name="unlink" d="M426.619 140.349l-56.187-56.187c-29.512-29.512-68.956-45.763-111.073-45.763-42.127 0-81.572 16.251-111.084 45.752-61.235 61.245-61.235 160.901 0 222.136l140.411 140.421c2.181 2.662 4.608 5.12 7.311 7.311l10.68 10.68-72.407 72.397-158.392-158.392c-101.171-101.171-101.171-265.789 0-366.961 48.845-48.845 114.002-75.745 183.48-75.745 69.468 0 134.625 26.9 183.47 75.745l113.92 113.92c-8.929-0.696-17.91-1.137-26.962-1.137-35.553-0.010-70.236 5.437-103.168 15.821zM948.122 517.294c101.171 101.171 101.171 265.789 0 366.961-48.835 48.845-114.002 75.745-183.48 75.745-69.468 0-134.625-26.9-183.47-75.745l-113.92-113.92c8.929 0.696 17.91 1.137 26.962 1.137 35.553 0 70.236-5.448 103.168-15.821l56.187 56.187c29.512 29.512 68.956 45.763 111.073 45.763 42.127 0 81.572-16.251 111.084-45.752 61.235-61.245 61.235-160.901 0-222.136l-140.421-140.421c-2.181-2.662-4.608-5.12-7.311-7.311l-68.782-68.782-207.882 207.882c52.992 14.95 112.323 1.69 153.948-39.926 18.575-18.586 32.061-41.595 39.383-66.785l78.111 78.111c-11.93 22.354-27.023 43.008-45.097 61.071-48.845 48.855-114.002 75.745-183.48 75.745-43.039 0-84.408-10.342-121.272-29.819l-300.513 300.524-72.407-72.407 292.383-292.383-0.174-0.174 72.397-72.397 0.174 0.174 207.882-207.882c-0.092-0.031-0.195-0.041-0.287-0.072l78.459-78.459c0.082 0.041 0.164 0.072 0.236 0.113l300.534-300.513 72.397 72.397-292.383 292.393 216.504 216.504zM346.327 282.45c48.845-48.855 114.002-75.745 183.48-75.745 11.069 0 22.036 0.707 32.84 2.058l-198.093 198.083-63.324-63.324c11.93-22.354 27.023-43.008 45.097-61.071z" />
<glyph unicode="&#xe922;" glyph-name="view" horiz-adv-x="1621" d="M1330.41 762.214c-175.506 131.12-350.367 197.786-519.743 197.786s-344.237-66.35-519.743-197.47c-137.437-102.684-236.159-217.059-272.292-261.608-24.842-30.647-24.842-75.197 0-105.844 36.134-44.549 134.856-158.924 272.292-261.608 175.506-131.12 350.367-197.47 519.743-197.47s344.237 66.35 519.743 197.47c137.437 102.684 236.159 217.059 272.292 261.608 24.842 30.647 24.842 75.197 0 105.844-35.811 44.233-134.856 158.608-272.292 261.292zM1263.95 218.777c-155.826-116.586-308.426-175.669-453.283-175.669s-297.457 59.083-453.283 175.669c-115.176 85.939-201.316 181.040-241.643 229.065 40.328 48.025 126.468 143.126 241.643 229.065 155.826 116.586 308.426 175.669 453.283 175.669s297.457-59.083 453.283-175.669c115.176-85.939 201.316-181.040 241.643-229.065-40.328-48.025-126.468-143.126-241.643-229.065zM810.667 770.113c-181.313 0-329.074-144.39-329.074-322.271s147.438-322.271 329.074-322.271c181.636 0 329.074 144.39 329.074 322.271s-147.761 322.271-329.074 322.271zM810.667 232.995c-120.983 0-219.382 96.365-219.382 214.847s98.399 214.847 219.382 214.847c120.983 0 219.382-96.365 219.382-214.847s-98.399-214.847-219.382-214.847z" />
<glyph unicode="&#x1f333;" glyph-name="add" d="M432 368h-240v160h240v240h160v-240h240v-160h-240v-240h-160z" />
</font>
</defs>
</svg>
